<?xml version="1.0" encoding="UTF-8" standalone="no"?>
<svg
   xmlns:osb="http://www.openswatchbook.org/uri/2009/osb"
   xmlns:dc="http://purl.org/dc/elements/1.1/"
   xmlns:cc="http://creativecommons.org/ns#"
   xmlns:rdf="http://www.w3.org/1999/02/22-rdf-syntax-ns#"
   xmlns:svg="http://www.w3.org/2000/svg"
   xmlns="http://www.w3.org/2000/svg"
   xmlns:xlink="http://www.w3.org/1999/xlink"
   width="710"
   height="490"
   id="svg2"
   version="1.1"
   viewBox="0 0 665.62499 459.37501">
  <defs
     id="defs4">
    <linearGradient
       id="linearGradient3944">
      <stop
         style="stop-color:#ffffff;stop-opacity:0;"
         offset="0"
         id="stop3946" />
      <stop
         style="stop-color:#939393;stop-opacity:1;"
         offset="1"
         id="stop3948" />
    </linearGradient>
    <linearGradient
       id="linearGradient3894">
      <stop
         style="stop-color:#ffffff;stop-opacity:1;"
         offset="0"
         id="stop3896" />
      <stop
         id="stop3904"
         offset="0.5"
         style="stop-color:#ffffff;stop-opacity:1;" />
      <stop
         id="stop3902"
         offset="0.5"
         style="stop-color:#ffffff;stop-opacity:0;" />
      <stop
         style="stop-color:#ffffff;stop-opacity:0;"
         offset="1"
         id="stop3898" />
    </linearGradient>
    <linearGradient
       id="linearGradient2307">
      <stop
         style="stop-color:#075b15;stop-opacity:1;"
         offset="0"
         id="stop2309" />
      <stop
         style="stop-color:#022608;stop-opacity:1;"
         offset="1"
         id="stop2311" />
    </linearGradient>
    <linearGradient
       id="linearGradient2268"
       osb:paint="gradient">
      <stop
         style="stop-color:#8c8c8c;stop-opacity:1;"
         offset="0"
         id="stop2270" />
      <stop
         style="stop-color:#000000;stop-opacity:1;"
         offset="1"
         id="stop2272" />
    </linearGradient>
    <linearGradient
       id="linearGradient2238">
      <stop
         style="stop-color:#d2d3c4;stop-opacity:1;"
         offset="0"
         id="stop2240" />
      <stop
         style="stop-color:#797976;stop-opacity:1;"
         offset="1"
         id="stop2242" />
    </linearGradient>
    <linearGradient
       id="linearGradient2230">
      <stop
         id="stop2232"
         offset="0"
         style="stop-color:#6f8491;stop-opacity:1;" />
      <stop
         id="stop2234"
         offset="1"
         style="stop-color:#14153b;stop-opacity:1;" />
    </linearGradient>
    <linearGradient
       id="linearGradient2182">
      <stop
         style="stop-color:#407aff;stop-opacity:1;"
         offset="0"
         id="stop2184" />
      <stop
         style="stop-color:#162958;stop-opacity:1;"
         offset="1"
         id="stop2186" />
    </linearGradient>
    <radialGradient
       xlink:href="#linearGradient2182"
       id="radialGradient2188"
       cx="520.67377"
       cy="226.56187"
       fx="520.67377"
       fy="226.56187"
       r="242.14285"
       gradientTransform="matrix(2.1510224e-4,-0.72165313,2.5546509,7.6111889e-4,-89.613132,563.64981)"
       gradientUnits="userSpaceOnUse" />
    <radialGradient
       xlink:href="#linearGradient2238"
       id="radialGradient2254"
       cx="495.27271"
       cy="284.74606"
       fx="495.27271"
       fy="284.74606"
       r="15"
       gradientTransform="matrix(1,0,0,1.071429,0,-20.34729)"
       gradientUnits="userSpaceOnUse" />
    <linearGradient
       xlink:href="#linearGradient2307"
       id="linearGradient2313"
       x1="-19.192898"
       y1="87.666504"
       x2="-1.0101526"
       y2="167.46855"
       gradientUnits="userSpaceOnUse" />
    <linearGradient
       xlink:href="#linearGradient2307"
       id="linearGradient2317"
       gradientUnits="userSpaceOnUse"
       x1="-19.192898"
       y1="87.666504"
       x2="-1.0101526"
       y2="167.46855"
       gradientTransform="translate(-1.763606e-5,3.545352e-6)" />
    <linearGradient
       xlink:href="#linearGradient2307"
       id="linearGradient2321"
       gradientUnits="userSpaceOnUse"
       x1="-19.192898"
       y1="87.666504"
       x2="-1.0101526"
       y2="167.46855"
       gradientTransform="translate(-6.378918e-7,2.908165e-6)" />
    <linearGradient
       xlink:href="#linearGradient2307"
       id="linearGradient2325"
       gradientUnits="userSpaceOnUse"
       x1="-19.192898"
       y1="87.666504"
       x2="-1.0101526"
       y2="167.46855"
       gradientTransform="translate(-7.592086e-8,4.181407e-6)" />
    <linearGradient
       xlink:href="#linearGradient2307"
       id="linearGradient2329"
       gradientUnits="userSpaceOnUse"
       x1="-19.192898"
       y1="87.666504"
       x2="-1.0101526"
       y2="167.46855"
       gradientTransform="translate(4.52146e-7,-9.274373e-6)" />
    <radialGradient
       xlink:href="#linearGradient3802-6"
       id="radialGradient3808-7"
       cx="333.10284"
       cy="337.67926"
       fx="333.10284"
       fy="337.67926"
       r="254.83678"
       gradientTransform="matrix(1,0,0,0.0019818,0,337.01005)"
       gradientUnits="userSpaceOnUse" />
    <linearGradient
       id="linearGradient3802-6">
      <stop
         style="stop-color:#000000;stop-opacity:1;"
         offset="0"
         id="stop3804-5" />
      <stop
         id="stop3810-6"
         offset="0.94999999"
         style="stop-color:#000000;stop-opacity:0.65490196;" />
      <stop
         style="stop-color:#000000;stop-opacity:0;"
         offset="1"
         id="stop3806-5" />
    </linearGradient>
    <radialGradient
       r="254.83678"
       fy="337.67926"
       fx="333.10284"
       cy="337.67926"
       cx="333.10284"
       gradientTransform="matrix(0.96592583,-0.25881905,5.1292759e-4,0.00191427,-1.9600139,361.37435)"
       gradientUnits="userSpaceOnUse"
       id="radialGradient3830-7"
       xlink:href="#linearGradient3802-6-8" />
    <linearGradient
       id="linearGradient3802-6-8">
      <stop
         style="stop-color:#000000;stop-opacity:1;"
         offset="0"
         id="stop3804-5-6" />
      <stop
         id="stop3810-6-4"
         offset="0.94999999"
         style="stop-color:#000000;stop-opacity:0.65490196;" />
      <stop
         style="stop-color:#000000;stop-opacity:0;"
         offset="1"
         id="stop3806-5-5" />
    </linearGradient>
    <linearGradient
       xlink:href="#linearGradient3894"
       id="linearGradient3900"
       x1="479.62341"
       y1="251.00642"
       x2="442.47189"
       y2="323.64337"
       gradientUnits="userSpaceOnUse" />
    <radialGradient
       xlink:href="#linearGradient3944"
       id="radialGradient3950"
       cx="259.0094"
       cy="275.61475"
       fx="259.0094"
       fy="275.61475"
       r="74.97226"
       gradientTransform="matrix(1.5407659,-0.02722999,0.00665266,0.37642841,-141.897,211.37276)"
       gradientUnits="userSpaceOnUse" />
    <radialGradient
       xlink:href="#linearGradient3944"
       id="radialGradient5512"
       gradientUnits="userSpaceOnUse"
       gradientTransform="matrix(1.5407641,-0.02722996,0.00665265,0.37642796,-141.89672,211.37299)"
       cx="259.0094"
       cy="275.61475"
       fx="259.0094"
       fy="275.61475"
       r="74.97226" />
    <clipPath
       id="clipPath4832"
       clipPathUnits="userSpaceOnUse">
      <path
         style="color:#000000;clip-rule:nonzero;display:inline;overflow:visible;visibility:visible;opacity:1;isolation:auto;mix-blend-mode:normal;color-interpolation:sRGB;color-interpolation-filters:linearRGB;solid-color:#000000;solid-opacity:1;fill-opacity:1;fill-rule:nonzero;stroke:#000000;stroke-width:1.58015478;stroke-linecap:butt;stroke-linejoin:miter;stroke-miterlimit:4;stroke-dasharray:none;stroke-dashoffset:0;stroke-opacity:1;color-rendering:auto;image-rendering:auto;shape-rendering:auto;text-rendering:auto;enable-background:accumulate"
         d="M 224.78415,182.44324 V 326.37561 H 548.87483 V 182.44324 Z"
         id="path4834" />
    </clipPath>
    <linearGradient
       y2="323.64337"
       x2="442.47189"
       y1="251.00642"
       x1="479.62341"
       gradientUnits="userSpaceOnUse"
       id="linearGradient4836"
       xlink:href="#linearGradient3894" />
  </defs>
  <metadata
     id="metadata7">
    <rdf:RDF>
      <cc:Work
         rdf:about="">
        <dc:format>image/svg+xml</dc:format>
        <dc:type
           rdf:resource="http://purl.org/dc/dcmitype/StillImage" />
        <dc:title></dc:title>
      </cc:Work>
    </rdf:RDF>
  </metadata>
  <g
     clip-path="none"
     id="layer1"
     style="display:inline"
     transform="matrix(1.1026255,0,0,1.1048061,-36.37179,-52.200639)">
    <path
       style="fill:url(#radialGradient2188);fill-opacity:1;stroke:none;stroke-width:0.99999881"
       id="path1307"
       d="m 96.012867,403.51163 a 242.14256,255.71397 0 0 1 106.692683,-255.32471 242.14256,255.71397 0 0 1 264.26868,-0.21981 242.14256,255.71397 0 0 1 107.0734,255.1469" />
    <path
       id="path5487"
       d="M 143.72544,205.57836 H 526.2586"
       style="opacity:0.3;fill:none;stroke:#ffffff;stroke-width:1.02273536px;stroke-linecap:butt;stroke-linejoin:miter;stroke-opacity:1" />
    <path
       id="path5491"
       d="M 94.842514,328.91785 H 575.12446"
       style="opacity:0.3;fill:none;stroke:#ffffff;stroke-width:1.14597964px;stroke-linecap:butt;stroke-linejoin:miter;stroke-opacity:1" />
    <path
       style="opacity:0.3;fill:none;stroke:#ffffff;stroke-width:1.12572622px;stroke-linecap:butt;stroke-linejoin:miter;stroke-opacity:1"
       d="M 103.3238,287.80468 H 566.77916"
       id="path5493" />
    <path
       id="path5495"
       d="M 119.00407,246.69154 H 551.54649"
       style="opacity:0.3;fill:none;stroke:#ffffff;stroke-width:1.08753467px;stroke-linecap:butt;stroke-linejoin:miter;stroke-opacity:1" />
    <path
       style="opacity:0.3;fill:none;stroke:#ffffff;stroke-width:0.91613251px;stroke-linecap:butt;stroke-linejoin:miter;stroke-opacity:1"
       d="M 181.53637,164.4652 H 488.4803"
       id="path5497" />
    <path
       id="path5499"
       d="M 248.77909,123.35205 H 421.38553"
       style="opacity:0.3;fill:none;stroke:#ffffff;stroke-width:0.68700087px;stroke-linecap:butt;stroke-linejoin:miter;stroke-opacity:1" />
    <path
       style="opacity:0.3;fill:none;stroke:#ffffff;stroke-width:1.15046513px;stroke-linecap:butt;stroke-linejoin:miter;stroke-opacity:1"
       d="M 92.921125,369.94985 H 576.97024"
       id="path5534" />
    <path
       style="opacity:0.3;fill:none;stroke:#ffffff;stroke-width:0.66726011px;stroke-linecap:butt;stroke-linejoin:miter;stroke-opacity:1"
       d="M 121.89155,240.8167 V 403.64607"
       id="path5398" />
    <path
       id="path5422"
       d="M 533.02312,215.0007 V 403.64607"
       style="opacity:0.3;fill:none;stroke:#ffffff;stroke-width:0.71821058px;stroke-linecap:butt;stroke-linejoin:miter;stroke-opacity:1" />
    <path
       style="opacity:0.3;fill:none;stroke:#ffffff;stroke-width:0.90111136px;stroke-linecap:butt;stroke-linejoin:miter;stroke-opacity:1"
       d="M 327.45736,106.68504 V 403.64607"
       id="path5426" />
    <path
       id="path5428"
       d="M 163.00472,182.34114 V 403.64607"
       style="opacity:0.3;fill:none;stroke:#ffffff;stroke-width:0.77790093px;stroke-linecap:butt;stroke-linejoin:miter;stroke-opacity:1" />
    <path
       style="opacity:0.3;fill:none;stroke:#ffffff;stroke-width:0.83749056px;stroke-linecap:butt;stroke-linejoin:miter;stroke-opacity:1"
       d="M 204.11787,147.13722 V 403.64607"
       id="path5430" />
    <path
       id="path5432"
       d="M 245.23104,124.7826 V 403.64607"
       style="opacity:0.3;fill:none;stroke:#ffffff;stroke-width:0.8732217px;stroke-linecap:butt;stroke-linejoin:miter;stroke-opacity:1" />
    <path
       style="opacity:0.3;fill:none;stroke:#ffffff;stroke-width:0.89324379px;stroke-linecap:butt;stroke-linejoin:miter;stroke-opacity:1"
       d="M 286.34418,111.84793 V 403.64607"
       id="path5434" />
    <path
       id="path5436"
       d="M 368.57052,109.04084 V 403.64607"
       style="opacity:0.3;fill:none;stroke:#ffffff;stroke-width:0.89752996px;stroke-linecap:butt;stroke-linejoin:miter;stroke-opacity:1" />
    <path
       style="opacity:0.3;fill:none;stroke:#ffffff;stroke-width:0.88206744px;stroke-linecap:butt;stroke-linejoin:miter;stroke-opacity:1"
       d="M 409.68367,119.1042 V 403.64607"
       id="path5438" />
    <path
       id="path5440"
       d="M 450.79682,137.72312 V 403.64607"
       style="opacity:0.3;fill:none;stroke:#ffffff;stroke-width:0.85272038px;stroke-linecap:butt;stroke-linejoin:miter;stroke-opacity:1" />
    <path
       style="opacity:0.3;fill:none;stroke:#ffffff;stroke-width:0.80342126px;stroke-linecap:butt;stroke-linejoin:miter;stroke-opacity:1"
       d="m 491.90998,167.58237 v 236.0637"
       id="path5442" />
    <path
       style="fill:#dcdcdc;fill-opacity:1;stroke:none;stroke-width:0.99999881"
       d="m 413.0287,262.89076 c 0,0 0.54666,-0.0317 -0.57052,-1.27254 -1.031,-1.14513 -11.30595,2.64647 -9.06456,2.1574 2.43153,-0.53056 3.83996,-2.76106 2.5789,-3.8106 -1.16209,-0.96717 -19.13128,5.11253 -16.89381,4.62424 2.43885,-0.53223 16.26432,-6.52664 14.96197,-7.52752 -1.19432,-0.91788 -20.61906,9.51122 -18.39478,9.02584 2.49036,-0.54344 19.9271,-17.43818 18.55672,-18.38914 -0.62278,-0.43217 -3.46757,4.28003 -6.06654,9.24989 -2.597,4.96609 -4.95296,10.19616 -4.45362,10.78095 0.54486,0.6381 1.80209,-4.16762 2.71233,-9.2391 0.91091,-5.07524 1.47268,-10.41328 0.77395,-10.85867 -0.61338,-0.391 -15.70605,15.32167 -13.87814,16.62482 0.94046,0.67048 11.46673,-14.54964 9.60485,-15.69052 -1.64747,-1.0095 -19.79003,12.50027 -18.84289,13.0157 2.21239,1.20398 16.13313,-13.83562 15.41386,-14.25581 -1.42603,-0.83309 -22.12421,11.61289 -20.84394,12.16281 1.77237,0.7613 16.24093,-12.88428 14.96007,-13.57797 -1.40959,-0.76342 -24.36651,10.8396 -22.96654,11.3279 0.81129,0.28297 7.55141,-4.3307 13.87004,-9.10994 6.32058,-4.78072 12.21636,-9.7252 11.47415,-10.11127 -0.68141,-0.35445 -3.49981,4.76441 -5.99985,10.03766 -2.49906,5.27117 -4.68093,10.69716 -3.92935,10.94658 0.82002,0.27213 3.24718,-4.90535 5.24245,-10.24305 1.99619,-5.34017 3.55833,-10.83745 2.80949,-11.21724 -0.68638,-0.34811 -4.05296,4.62707 -7.09374,9.74906 -3.03974,5.1202 -5.75464,10.38738 -4.98592,10.61442 0.83779,0.24745 3.13722,-4.32302 5.00731,-9.04545 1.8708,-4.72425 3.31044,-9.59794 2.55456,-9.96604 -1.4993,-0.73015 -17.36151,17.25041 -15.99172,17.63065 0.84728,0.23519 5.4061,-4.72095 9.52613,-9.82467 4.12149,-5.10553 7.80146,-10.35633 7.04124,-10.71945 -0.69737,-0.33311 -3.98911,4.8134 -6.95127,10.09845 -2.96114,5.28326 -5.59351,10.70503 -4.81113,10.9135 0.85299,0.22729 3.54698,-4.50975 5.80359,-9.39112 2.25746,-4.88318 4.07559,-9.90819 3.31168,-10.26589 -0.70135,-0.32841 -5.42909,4.11731 -9.81284,8.69438 -4.38266,4.57593 -8.42202,9.28322 -7.62396,9.47233 1.90053,0.45034 12.02649,-16.60226 10.56573,-17.23378 -1.48322,-0.64122 -25.03246,14.77971 -23.50126,15.08122 0.89131,0.17551 6.32297,-4.33805 11.30268,-8.97286 4.98096,-4.63595 9.50764,-9.39159 8.71286,-9.70598 -0.73035,-0.28891 -6.08128,4.25996 -11.07323,8.91811 -4.99093,4.65722 -9.62311,9.42336 -8.78933,9.5643 0.90872,0.15361 6.42005,-5.49773 11.45603,-11.26147 5.03749,-5.76546 9.59681,-11.64094 8.79143,-11.94429 -0.73754,-0.2778 -4.72709,5.62779 -8.37305,11.63679 -3.64497,6.00735 -6.94625,12.11679 -6.10027,12.23841 0.92531,0.13302 4.36807,-6.4645 7.31175,-13.16399 2.94473,-6.70185 5.38805,-13.50222 4.56643,-13.78672 -0.74973,-0.2596 -3.76557,6.46046 -6.44643,13.27674 -2.68004,6.81419 -5.02499,13.72248 -4.16926,13.82897 0.93781,0.1167 3.55857,-6.76497 5.66991,-13.74163 2.11209,-6.97914 3.71282,-14.04942 2.88196,-14.32223 -0.75739,-0.24869 -3.83533,6.65383 -6.57722,13.6463 -2.74108,6.99044 -5.14588,14.06845 -4.27981,14.1606 0.94812,0.10088 2.37966,-5.81429 3.31394,-11.81613 0.93453,-6.00354 1.37075,-12.09089 0.52741,-12.34295 -0.77197,-0.23072 -6.36013,5.2667 -11.57894,10.84086 -5.21792,5.57318 -10.06575,11.22177 -9.17845,11.2885 0.969,0.0729 6.44634,-6.12539 11.41317,-12.39992 4.96795,-6.27598 9.4228,-12.62566 8.5687,-12.86279 -0.78099,-0.21682 -5.38411,6.22638 -9.62868,12.73964 -4.24376,6.51197 -8.12806,13.0918 -7.2299,13.14181 0.98353,0.0548 4.79999,-6.93227 8.08271,-13.98383 3.28346,-7.05316 6.03121,-14.16774 5.15458,-14.37607 -0.79925,-0.18994 -4.72701,6.94758 -8.29993,14.14242 -3.57228,7.19352 -6.78871,14.44141 -5.87268,14.46566 1.00509,0.0266 4.43721,-7.47999 7.31585,-15.03873 2.8792,-7.56024 5.20312,-15.1691 4.30902,-15.35452 -0.81357,-0.16873 -4.94609,7.52147 -8.72389,15.25314 -3.77728,7.73061 -7.19822,15.49868 -6.25169,15.48038 1.03965,-0.0201 3.47743,-7.68275 5.34108,-15.37362 1.86387,-7.6917 3.15257,-15.40836 2.22068,-15.54066 -0.84777,-0.12036 -5.5686,7.65451 -9.91517,15.44127 -4.3464,7.7865 -8.31614,15.58046 -7.32151,15.49691 1.09323,-0.0918 5.26496,-8.2515 8.83336,-16.41456 3.56845,-8.16315 6.5317,-16.32543 5.57449,-16.42287 -0.86912,-0.0885 -4.55257,8.34607 -7.86587,16.77769 -3.31333,8.43173 -6.25451,16.85553 -5.24171,16.74613 1.11317,-0.12025 4.00093,-7.76683 6.28889,-15.40574 2.2879,-7.63869 3.97492,-15.26581 3.00665,-15.34599 -0.88164,-0.073 -5.92495,7.48679 -10.57089,15.03334 -4.64615,7.54691 -8.89227,15.07644 -7.86166,14.94468 1.12855,-0.14429 4.84718,-6.25205 7.98919,-12.34103 3.14183,-6.08864 5.70585,-12.1559 4.72726,-12.21745 -0.89591,-0.0563 -8.89587,5.83939 -16.45354,11.70402 -7.55839,5.86518 -14.67033,11.69619 -13.60022,11.51318 1.17159,-0.20037 9.10027,-7.25185 16.41937,-14.26083 7.31787,-7.00781 14.02241,-13.96916 13.0088,-13.98337 -0.92327,-0.0129 -7.29884,7.99417 -13.23532,15.9179 -5.93812,7.92593 -11.43092,15.76121 -10.24306,15.41564 1.30278,-0.37901 5.87167,-7.27046 9.7907,-14.06113 3.91768,-6.78831 7.18306,-13.47017 6.12292,-13.41818 -0.96743,0.0474 -9.13148,7.24967 -16.80279,14.32043 -7.67465,7.07386 -14.84759,14.00899 -13.56628,13.53762 1.40767,-0.51786 8.87836,-8.12122 15.65372,-15.57532 6.77086,-7.44915 12.8382,-14.73855 11.71832,-14.6037 -1.01761,0.12253 -8.71597,8.91297 -15.93757,17.54507 -7.22584,8.63716 -13.96699,17.1084 -12.67186,16.61787 1.42995,-0.54159 8.53998,-10.0787 14.88036,-19.43244 6.33479,-9.34549 11.8942,-18.49596 10.674,-18.22302 -1.10156,0.24641 -6.62614,10.8726 -11.69747,21.30022 -5.07538,10.43593 -9.69335,20.66953 -8.39351,20.1723 1.43416,-0.54861 5.28205,-9.54939 8.34414,-18.33159 3.05962,-8.77515 5.33321,-17.32428 4.03033,-16.93433 -1.18105,0.35349 -9.38295,9.50304 -17.06229,18.42339 -7.68656,8.92874 -14.84909,17.62922 -13.54362,17.12652 1.43912,-0.55416 7.85631,-9.00658 13.43781,-17.14505 5.57558,-8.12983 10.31499,-15.94042 8.73829,-15.16775 -1.42859,0.70009 -9.69259,9.9689 -17.35406,18.902 -7.67327,8.94688 -14.75674,17.57658 -13.4444,17.06729 1.44757,-0.56176 8.34863,-9.51071 14.38954,-18.12914 6.03383,-8.60831 11.20745,-16.88094 9.57967,-16.03943 -1.47395,0.76198 -8.69597,10.70973 -15.32311,20.30201 -6.63749,9.60727 -12.69074,18.87961 -11.3736,18.36572 1.45096,-0.5661 6.08939,-9.2372 9.86583,-17.57258 3.77275,-8.32722 6.68455,-16.31335 5.05206,-15.46868 -1.48206,0.76683 -7.9945,10.42407 -13.90496,19.7267 -5.9191,9.31626 -11.24464,18.2966 -9.9212,17.77769 1.45439,-0.57025 5.17871,-8.48282 8.05334,-16.05482 2.8722,-7.56559 4.89588,-14.78528 3.25736,-13.93768 -1.49252,0.77209 -7.86949,9.16301 -13.61154,17.20296 -5.74984,8.05083 -10.87346,15.76711 -9.54428,15.24431 1.45942,-0.57403 6.90803,-8.64029 11.50577,-16.36662 4.59325,-7.71876 8.3355,-15.09192 6.69334,-14.24183 -1.49458,0.77369 -7.62346,9.48586 -13.12462,17.84537 -5.50856,8.37079 -10.39711,16.40541 -9.06529,15.88037 1.4567,-0.57427 3.99544,-6.44769 5.71633,-11.97241 1.71991,-5.52159 2.62288,-10.68986 0.97406,-9.8381 -1.50276,0.77632 -9.79124,6.78047 -17.3734,12.42805 -7.59668,5.65837 -14.51542,10.98288 -13.1779,10.45392 1.46745,-0.58034 10.05777,-8.00879 17.81722,-15.09696 7.74949,-7.07908 14.66448,-13.81182 13.01237,-12.95536 -1.50486,0.78014 -6.15318,9.33317 -10.17245,17.53469 -4.02404,8.21124 -7.42277,16.08495 -6.08407,15.55503 1.46485,-0.57985 3.39052,-7.58476 4.47439,-14.24031 1.08316,-6.65116 1.32655,-12.94797 -0.32889,-12.0896 -1.51234,0.78417 -6.7179,8.80526 -11.2775,16.4738 -4.56504,7.67771 -8.48947,15.01683 -7.14526,14.48288 1.46615,-0.58239 2.49554,-5.39937 2.71339,-9.86022 0.21777,-4.45912 -0.37425,-8.55835 -2.03989,-7.69654 -3.3463,1.73141 -27.66873,19.15205 -25.31858,18.21605 1.47278,-0.58657 8.05285,-5.9728 13.82379,-11.00714 5.76593,-5.02996 10.71734,-9.70143 9.04948,-8.83654 -1.52678,0.79173 -7.1199,7.31322 -12.03135,13.48327 -4.91705,6.17708 -9.1601,12.01534 -7.80763,11.47573 1.47413,-0.58816 4.14798,-5.87371 6.00217,-10.80158 1.85324,-4.92533 2.88721,-9.48835 1.2128,-8.61875 -1.53582,0.79761 -5.79602,7.2174 -9.37499,13.28662 -3.58241,6.07507 -6.4873,11.80986 -5.12952,11.26665 3.14381,-1.25774 1.8835,-14.55311 -1.33549,-12.88383 -3.30478,1.71374 -26.23,16.30908 -23.75227,15.31452 3.0442,-1.22194 13.83348,-10.36053 10.51397,-8.63697 -3.27571,1.70081 -23.94387,14.4643 -21.3972,13.43899 3.0112,-1.21234 12.32572,-7.94495 8.95459,-6.19346 -3.14377,1.63337 -23.71744,10.38736 -20.9721,9.27929 3.06455,-1.2369 17.57207,-10.46657 14.22731,-8.72291 -3.31208,1.72661 -13.12637,14.94243 -10.57814,13.91188 3.16277,-1.27908 7.27245,-13.97717 3.98594,-12.2593 -3.38749,1.77065 -6.76231,17.43491 -4.29155,16.43364 3.10319,-1.25756 -2.84091,-11.38485 -6.19834,-9.62826 -3.28469,1.71853 -8.41602,12.55204 -5.78541,11.48356 3.13589,-1.2737 4.79805,-12.49248 1.453,-10.7375 -3.34744,1.75624 -3.45845,15.04204 -0.89241,13.99798 3.08678,-1.25594 -4.56197,-10.07527 -7.96901,-8.28423 -3.28008,1.72431 -4.73014,11.01756 -2.05019,9.92478 3.05533,-1.24583 -1.39804,-8.02914 -4.85146,-6.20726 -3.2781,1.72937 -4.69012,9.91226 -1.97972,8.80429 3.01654,-1.23312 -5.35299,-3.44827 -8.87962,-1.57333 -3.26346,1.73504 -9.15554,5.50486 -6.372371,4.36249 3.021831,-1.24032 1.483721,-1.70866 -2.134004,0.26957 -3.33508,1.82367 -6.637447,3.16997 -3.858073,2.04504 3.010821,-1.21861 -0.01165,0.0424 -0.01165,0.0424 0,0 -2.999547,1.17634 0.01165,-0.0424 2.779374,-1.12493 7.193158,-3.86871 3.858073,-2.04504 -3.608741,1.97331 -0.899795,0.97567 2.134004,-0.26957 2.815891,-1.15579 9.610591,-6.0841 6.372371,-4.36249 -3.52151,1.87224 5.85644,2.80916 8.87962,1.57333 2.87862,-1.17674 5.12746,-10.4649 1.97972,-8.80429 -3.51213,1.85284 1.87209,7.42213 4.85146,6.20726 2.89747,-1.18146 5.16157,-11.56039 2.05019,-9.92478 -3.5197,1.85027 5.0278,9.48094 7.96901,8.28423 3.00876,-1.22419 3.89653,-15.57409 0.89241,-13.99798 -3.54095,1.85776 -4.33583,11.90842 -1.453,10.7375 2.9264,-1.18861 8.84047,-13.08196 5.78541,-11.48356 -3.51359,1.83829 3.29676,10.80411 6.19834,9.62826 3.08438,-1.24993 7.20332,-17.95564 4.29155,-16.43364 -3.54415,1.85254 -6.8157,13.4037 -3.98594,12.2593 2.9862,-1.20767 13.55043,-15.46137 10.57814,-13.91188 -3.47129,1.8096 -17.12845,9.89387 -14.22731,8.72291 2.74536,-1.10807 24.11586,-10.91265 20.9721,-9.27929 -3.43082,1.78251 -11.88876,7.37478 -8.95459,6.19346 2.95427,-1.18941 24.35686,-14.97571 21.3972,-13.43899 -3.44275,1.78754 -13.39876,9.79493 -10.51397,8.63697 3.00684,-1.20695 26.64747,-16.81589 23.75227,-15.31452 -3.50134,1.81567 -1.44235,13.99516 1.33549,12.88383 1.36895,-0.54768 5.8191,-7.08058 9.49149,-13.28663 3.66953,-6.20121 6.56078,-12.07046 5.01302,-11.26664 -1.6682,0.86636 -4.17678,6.01997 -5.92972,10.80157 -1.75411,4.78479 -2.75311,9.20441 -1.28525,8.61876 1.36538,-0.54477 7.14535,-7.17571 12.15178,-13.48329 5.00193,-6.30187 9.22858,-12.27501 7.6872,-11.47571 -1.65465,0.85805 -8.0854,6.12209 -13.74809,11.00714 -5.67026,4.89159 -10.5877,9.41902 -9.12518,8.83654 1.36028,-0.54177 8.47989,-5.48671 14.85924,-10.1083 6.37294,-4.61694 11.99892,-8.90433 10.45934,-8.10775 -3.57794,1.85126 -3.27575,18.59043 -0.6735,17.55676 1.362,-0.54102 6.81275,-8.66611 11.4632,-16.47381 4.64573,-7.79979 8.49118,-15.27704 6.95956,-14.48287 -1.64509,0.853 -3.35176,7.73188 -4.3404,14.24031 -0.98941,6.51356 -1.25946,12.6653 0.1949,12.0896 1.35798,-0.53754 6.27688,-9.19344 10.38475,-17.53469 4.10368,-8.33271 7.39713,-16.34578 5.87177,-15.55503 -1.6268,0.84336 -10.01423,8.163 -17.66497,15.09696 -7.66379,6.94577 -14.61237,13.52791 -13.16462,12.95536 1.3532,-0.53516 9.7874,-6.63924 17.47454,-12.42804 7.67729,-5.78139 14.60279,-11.24226 13.07676,-10.45393 -1.64116,0.84781 -4.00067,6.59269 -5.62464,11.97242 -1.62513,5.38354 -2.51477,10.40933 -1.06575,9.83809 1.3536,-0.53362 7.75325,-9.3447 13.34518,-17.84537 5.5855,-8.49088 10.36337,-16.66652 8.84473,-15.88037 -1.62341,0.84038 -6.82395,8.79087 -11.32437,16.36663 -4.50574,7.58471 -8.31683,14.80904 -6.87474,14.24182 1.34993,-0.53096 7.98185,-9.02198 13.81566,-17.20295 5.82716,-8.17164 10.85596,-16.02844 9.34016,-15.24432 -1.62304,0.8396 -5.09915,8.63217 -7.87917,16.05483 -2.78282,7.43011 -4.87094,14.50205 -3.43153,13.93767 1.35001,-0.52932 8.17742,-10.28034 14.17791,-19.7267 5.99286,-9.43438 11.15965,-18.5597 9.64825,-17.77769 -1.61269,0.83442 -5.97281,9.38941 -9.65427,17.57258 -3.6857,8.19258 -6.69579,16.02745 -5.26362,15.46868 1.34615,-0.52521 8.89474,-10.5641 15.61331,-20.30201 6.70949,-9.72474 12.58995,-19.14455 11.0834,-18.36572 -1.60226,0.82831 -8.22182,9.66637 -14.16322,18.12915 -5.94976,8.47468 -11.23082,16.59237 -9.80599,16.03942 1.33979,-0.51993 9.87015,-9.85358 17.60515,-18.902 7.72456,-9.03621 14.6532,-17.78271 13.19331,-17.06729 -1.55473,0.7619 -7.7304,9.12924 -13.2354,17.14505 -5.51178,8.02567 -10.35974,15.71418 -8.9407,15.16775 1.33213,-0.51296 9.68259,-9.5669 17.30787,-18.42339 7.61744,-8.84738 14.50323,-17.48724 13.29804,-17.12652 -1.28317,0.38405 -4.97693,9.47967 -8.10252,18.33159 -3.1279,8.85851 -5.68588,17.4752 -4.27195,16.93433 1.32963,-0.50863 7.0562,-10.98849 12.03189,-21.30022 4.97125,-10.3025 9.18805,-20.42483 8.05909,-20.1723 -1.19645,0.26763 -8.16588,9.95552 -14.60473,19.43245 -6.44378,9.48417 -12.35267,18.75441 -10.94963,18.22301 1.31921,-0.49964 9.07793,-9.09165 16.1645,-17.54507 7.08132,-8.44715 13.481,-16.74262 12.44493,-16.61787 -1.10533,0.13309 -8.56304,7.93671 -15.47668,15.57532 -6.91713,7.64246 -13.28384,15.1145 -11.89536,14.6037 1.29949,-0.47806 9.43644,-7.45857 16.95369,-14.32044 7.51266,-6.85769 14.39448,-13.58562 13.41538,-13.53761 -1.04909,0.0514 -5.60499,7.11032 -9.64385,14.06112 -4.03998,6.95271 -7.55977,13.79348 -6.26977,13.41819 1.20558,-0.35074 7.62135,-8.17191 13.4263,-15.9179 5.8029,-7.74324 10.98916,-15.4025 10.05208,-15.41564 -1.00244,-0.0141 -8.86777,7.14638 -16.26416,14.26083 -7.39744,7.11546 -14.32186,14.18138 -13.16401,13.98337 1.0799,-0.18469 9.08775,-5.95893 16.55841,-11.70401 7.46979,-5.74443 14.39833,-11.4564 13.49535,-11.51319 -0.97031,-0.061 -4.65518,6.1499 -7.87184,12.34104 -3.21682,6.19142 -5.96401,12.36056 -4.84461,12.21744 1.04443,-0.13354 6.17454,-7.58947 10.74576,-15.03335 4.57095,-7.44346 8.58057,-14.87065 7.68679,-14.94467 -0.95518,-0.0791 -3.74469,7.66748 -6.10488,15.40574 -2.36027,7.73846 -4.28996,15.46474 -3.19066,15.34599 1.02944,-0.1112 4.84338,-8.44571 8.08454,-16.77769 3.2411,-8.33185 5.90748,-16.65609 5.02304,-16.74613 -0.94258,-0.096 -4.98743,8.1575 -8.62355,16.41456 -3.63611,8.25699 -6.86166,16.51336 -5.7843,16.42287 1.00887,-0.0847 5.82881,-7.75748 10.1014,-15.44127 4.27278,-7.68411 7.99562,-15.37477 7.13528,-15.49691 -0.9188,-0.13044 -3.23766,7.60632 -5.15513,15.37362 -1.91728,7.76653 -3.43265,15.56049 -2.40663,15.54066 0.96007,-0.0186 5.19704,-7.61673 8.90768,-15.25315 3.71121,-7.63761 6.89363,-15.30913 6.0679,-15.48037 -0.88197,-0.18291 -4.20193,7.39983 -7.13612,15.03873 -2.93366,7.63754 -5.48085,15.32825 -4.48875,15.35452 0.92751,0.0246 4.94529,-7.03221 8.45916,-14.14242 3.51458,-7.11167 6.52306,-14.27326 5.71345,-14.46566 -0.86639,-0.2059 -4.58994,6.85461 -7.92625,13.98383 -3.33563,7.12777 -6.28345,14.32192 -5.31104,14.37607 0.90732,0.0505 5.57379,-6.31138 9.75898,-12.73962 4.18615,-6.42971 7.8886,-12.92278 7.0996,-13.14183 -0.84672,-0.23506 -6.26445,6.0425 -11.28903,12.39994 -5.02359,6.35617 -9.65328,12.79054 -8.69284,12.86277 0.8938,0.0672 6.51388,-5.34984 11.67421,-10.84085 5.16137,-5.49214 9.86057,-11.05616 9.08318,-11.28851 -0.83545,-0.24969 -2.21391,5.73778 -3.20041,11.81612 -0.98625,6.07685 -1.5809,12.24295 -0.64094,12.34296 0.87661,0.0933 4.04063,-6.73441 6.72761,-13.64629 2.68786,-6.91417 4.8965,-13.90874 4.12942,-14.16061 -0.82074,-0.26949 -3.35189,6.6855 -5.51674,13.74164 -2.16416,7.05393 -3.96217,14.20686 -3.03513,14.32222 0.86568,0.10773 3.96202,-6.5393 6.58933,-13.27672 2.62822,-6.73976 4.78523,-13.56622 4.02636,-13.82899 -0.81272,-0.28141 -4.17479,6.3874 -7.1705,13.164 -2.99477,6.77447 -5.62328,13.65508 -4.70768,13.78671 0.85343,0.12268 4.89286,-5.70761 8.4839,-11.6368 3.59217,-5.93106 6.73352,-11.95813 5.98942,-12.2384 -0.79966,-0.3012 -6.26324,5.4219 -11.35134,11.26146 -5.08674,5.83803 -9.79816,11.79182 -8.89612,11.9443 1.82332,0.30821 21.26147,-17.92904 19.86256,-18.48241 -0.79133,-0.31304 -6.20664,4.26804 -11.23489,8.97286 -5.02717,4.70381 -9.66785,9.53128 -8.78065,9.70598 1.74747,0.3441 24.88599,-14.48257 23.50126,-15.08122 -1.64727,-0.71214 -12.12598,16.86406 -10.56573,17.23378 1.76988,0.41939 18.75635,-17.54883 17.4368,-18.16671 -0.75944,-0.35562 -3.42744,4.44369 -5.72856,9.39111 -2.30039,4.94584 -4.23483,10.03991 -3.38671,10.2659 0.78782,0.20992 4.11781,-4.87721 7.03703,-10.09846 2.92035,-5.22327 5.42764,-10.57805 4.72537,-10.91349 -0.75594,-0.36108 -5.28035,4.65609 -9.44416,9.82467 -4.16254,5.16696 -7.9656,10.48561 -7.12321,10.71945 1.74404,0.48412 17.27769,-17.0044 15.99172,-17.63065 -0.75163,-0.36604 -3.02622,4.26188 -4.93715,9.04546 -1.9103,4.78196 -3.45794,9.71994 -2.62472,9.96603 0.77371,0.22852 4.17508,-4.68899 7.17429,-9.74905 3.00037,-5.06205 5.59623,-10.26405 4.90537,-10.61443 -0.7434,-0.37703 -3.12223,4.85031 -5.15302,10.24306 -2.02995,5.39052 -3.71313,10.94702 -2.89892,11.21723 0.75698,0.25121 3.62071,-4.8185 6.08537,-10.03766 2.46576,-5.22147 4.53022,-10.58955 3.84383,-10.94658 -0.73914,-0.38448 -7.44475,4.27844 -13.79835,9.10993 -6.3518,4.83011 -12.35354,9.82956 -11.54584,10.11128 1.58573,0.55309 24.2565,-10.62928 22.96654,-11.3279 -1.64519,-0.89102 -16.27305,13.014 -14.96007,13.57797 1.56811,0.67356 22.05835,-11.45336 20.84394,-12.16281 -2.14342,-1.25219 -16.09742,13.88382 -15.41386,14.25581 1.72664,0.93964 19.79807,-12.4304 18.84289,-13.0157 -0.95943,-0.5879 -11.32098,14.46706 -9.60485,15.69052 0.62396,0.44484 15.83804,-15.37551 13.87814,-16.62482 -0.69358,-0.44212 -1.80137,4.26217 -2.63423,9.2391 -0.83204,4.97198 -1.39227,10.22601 -0.85205,10.85867 0.50279,0.58883 3.48314,-4.20458 6.14415,-9.24989 2.66267,-5.04845 5.00294,-10.3459 4.37601,-10.78095 -0.67477,-0.46825 -5.8856,4.26004 -10.66036,9.04175 -4.77465,4.78159 -9.10894,9.612 -7.89636,9.34739 2.25716,-0.49255 19.59844,-8.1008 18.39478,-9.02584 -1.29586,-0.99591 -17.37796,8.05477 -14.96197,7.52752 2.24621,-0.49019 18.0582,-3.65516 16.89381,-4.62424 -1.2595,-1.04824 -5.00454,4.33987 -2.5789,3.8106 2.24328,-0.48948 10.09594,-1.01186 9.06456,-2.1574 -1.117,-1.24066 0.57052,1.27254 0.57052,1.27254 z"
       id="rect2293" />
    <path
       style="fill:none;fill-opacity:1;stroke:#ffffff;stroke-width:1.99999762;stroke-miterlimit:4;stroke-dashoffset:0;stroke-opacity:1"
       d="m 413.22194,251.64806 c 93.92577,-22.15387 119.99448,52.1207 120.34894,85.68104 l -120.01433,0.0854 c 0,0 -291.18471,-0.22577 -291.18471,-0.22577 l 0.0681,-8.03822 290.78203,-77.50243 z"
       id="rect2190" />
    <path
       id="path2276"
       d="m 337.44744,294.08118 c 26.24811,-4.54011 52.91046,-9.09164 69.31243,-11.75611 11.04082,-1.79356 20.69053,-3.27694 29.07216,-4.39579 0,0 0.01,-0.001 0.01,-0.001 m 0.0783,-0.2891 c 5.68629,-0.77259 10.81286,-1.37252 15.46274,-1.79195 11.6137,-1.04757 20.321,-0.97557 27.41558,0.36767 3.54903,0.67195 6.69797,1.66274 9.60295,2.99293 2.90505,1.33022 5.56691,3.00022 8.14033,5.03081 -0.34965,0.85557 -0.69955,1.71111 -1.04968,2.5666 -6.01679,-3.84656 -11.57024,-6.34158 -18.33801,-7.63939 -4.27691,-0.82016 -9.03642,-1.1622 -14.71156,-1.07012 0,0 -0.0102,1.6e-4 -0.0102,1.6e-4 m 0.50808,-0.35145 c -3.21697,0.0893 -6.73879,0.32811 -10.64951,0.70841 -10.5332,1.0243 -24.22592,3.11842 -42.15906,6.08889 -11.74959,1.94622 -28.94974,4.88172 -45.73,7.79299 0,0 -0.01,0.002 -0.01,0.002 m 0.83577,-0.92187 c -7.46233,1.27847 -15.14018,2.58097 -23.58805,4.00078 -1.27411,-0.84416 -2.54821,-1.68808 -3.82239,-2.53168 28.67572,-4.59515 49.55889,-7.96683 68.49808,-10.61239 -0.001,1.9e-4 1.27635,-0.17755 1.27503,-0.17736 0,0 0.01,-10e-4 0.01,-10e-4 m -71.44188,10.739 c 27.92798,-4.70948 50.96951,-8.73896 69.86823,-11.85465 11.33033,-1.86795 21.19234,-3.40908 29.82119,-4.57857 0,0 0.0101,-0.001 0.0101,-0.001 m -0.70327,1.63283 c 5.67469,-0.77201 10.82046,-1.36893 15.50016,-1.7836 11.69314,-1.03613 20.55742,-0.94372 27.80128,0.41787 3.62635,0.68163 6.85443,1.68219 9.84421,3.02289 2.99003,1.34082 5.74164,3.02172 8.4179,5.06508 -0.32115,0.8591 -0.64194,1.71823 -0.96235,2.57738 -5.78976,-3.81887 -11.11926,-6.28557 -17.61078,-7.54939 -4.09889,-0.79801 -8.65406,-1.11464 -14.06182,-0.98899 0,0 -0.01,2.2e-4 -0.01,2.2e-4 m -0.6097,-1.43742 c -3.25927,0.0974 -6.81894,0.34492 -10.75772,0.73495 -10.57968,1.04761 -24.34065,3.18029 -42.10198,6.21939 -11.97729,2.04941 -28.36417,4.96435 -45.33499,8.08905 0,0 -0.01,0.002 -0.01,0.002 m -0.26568,0.43741 c -7.25825,1.26575 -14.99241,2.55581 -23.32813,3.87532 -1.26653,-0.86019 -2.53453,-1.72168 -3.8039,-2.58439 24.51865,-4.22909 53.59792,-9.85609 68.41779,-12.58707 -0.006,0.001 1.28574,-0.23653 1.27986,-0.23545 0,0 0.01,-0.002 0.01,-0.002 m -57.85548,9.69147 111.11677,-18.22487 m -1.33887,0.36553 33.5642,4.74532 m -1.12318,3.32794 -31.37688,-5.07792 m 27.65785,2.55558 -39.14621,-1.48155 m 3.67505,0.22194 -117.05943,19.49539"
       style="fill:none;stroke:#8f8f8f;stroke-width:0.99999881;stroke-miterlimit:4;stroke-dasharray:none;stroke-dashoffset:0;stroke-opacity:1" />
    <path
       id="rect2265"
       d="m 335.67967,284.00396 c 29.53956,-6.506 54.1842,-11.14187 73.49048,-14.11208 9.08419,-1.39758 17.273,-2.47297 24.64862,-3.24537 0,0 0.01,-10e-4 0.01,-10e-4 m 0.0783,-0.28911 c 8.69025,-0.93396 16.24605,-1.42799 22.86735,-1.52601 12.31829,-0.18235 21.48015,1.00465 28.72128,3.32633 7.24439,2.32273 12.58462,5.78739 17.21747,10.17644 -1.1124,0.34735 -2.2251,0.69458 -3.33807,1.04169 -4.68152,-3.45076 -9.37796,-6.41775 -15.74085,-8.53108 -1.90036,-0.63117 -3.94914,-1.1862 -6.19121,-1.65577 0,0 0,0 0,0 0,0 -0.01,-0.002 -0.01,-0.002 m 0.50808,-0.35146 c -5.11957,-1.04401 -11.28688,-1.60921 -19.06965,-1.56826 -11.04004,0.0581 -25.56277,1.3464 -44.78845,4.2706 -10.14496,1.54303 -21.85443,3.58381 -34.90655,6.16379 0,0 -0.01,0.002 -0.01,0.002 m 0.83577,-0.92187 c -11.75542,2.29341 -25.01923,5.03877 -39.49828,8.22833 -1.5289,-0.68184 -3.05815,-1.36307 -4.58788,-2.04359 20.40975,-4.20897 37.81005,-7.42192 53.14411,-9.80228 0,0 0.01,-10e-4 0.01,-10e-4 m -54.67947,9.59244 c 29.43949,-6.37609 54.10094,-11.10197 74.15464,-14.23928 9.3163,-1.45749 17.71185,-2.5849 25.2893,-3.39948 0,0 0.0102,-0.001 0.0102,-0.001 m -0.70327,1.63282 c 8.67294,-0.93316 16.27878,-1.42025 22.96834,-1.50872 12.45368,-0.1647 21.81795,1.04843 29.25359,3.39369 7.44423,2.34798 12.97983,5.83565 17.84283,10.25366 -1.07161,0.35239 -2.14259,0.70478 -3.21292,1.05717 -4.47049,-3.42586 -8.94099,-6.36243 -15.01179,-8.44049 -1.81146,-0.62007 -3.76361,-1.16298 -5.89782,-1.61902 0,0 0,0 0,0 0,0 -0.009,-0.002 -0.009,-0.002 m -0.60971,-1.43743 c -5.18787,-1.03062 -11.41448,-1.58131 -19.2212,-1.52028 -11.05456,0.0864 -25.57417,1.41259 -44.59844,4.42947 -10.05317,1.59424 -21.64408,3.70839 -34.60113,6.41004 0,0 -0.01,0.002 -0.01,0.002 m -0.26568,0.43741 c -11.09246,2.20306 -25.16329,5.03329 -39.20568,7.87373 -1.52969,-0.71132 -3.06077,-1.42387 -4.59315,-2.13756 20.74569,-4.71159 37.27492,-8.40111 53.05973,-11.56464 0,0 0.01,-0.002 0.01,-0.002 m -10.4926,0.34122 94.66097,-11.7002 m -22.17357,1.7791 42.56987,4.77026 m -34.78063,-4.96745 37.55397,6.68117 m 1.33022,5.22822 -30.39549,-8.8918 m -37.23541,1.97342 -116.49404,22.63005"
       style="fill:none;stroke:#8f8f8f;stroke-width:0.99999881;stroke-miterlimit:4;stroke-dasharray:none;stroke-dashoffset:0;stroke-opacity:1" />
    <path
       style="fill:#8f8f8f;fill-opacity:1;stroke:none;stroke-width:0.87287056"
       id="path2248"
       d="m 493.77183,279.15662 c 0,0 7.94015,-4.94006 7.43044,-4.83397 -0.73057,0.15207 -7.70919,5.56132 -7.73749,8.66507 -0.0267,2.93242 14.95336,-6.93359 14.82045,-6.96976 -0.28872,-0.0786 -14.34202,8.75091 -13.97573,10.41858 0.3337,1.51933 15.63031,-10.01446 15.22113,-10.20327 -0.52026,-0.24008 -15.36933,10.81775 -14.64426,12.86036 0.33786,0.95179 3.27971,-2.80001 6.07966,-6.78264 2.80138,-3.98466 5.43336,-8.16638 5.37182,-8.20792 -0.11045,-0.0745 -3.06528,4.32057 -5.92873,9.01615 -2.85383,4.67984 -5.64488,9.70046 -5.11856,10.6471 0.49809,0.89583 4.75184,-2.94566 8.8102,-7.06332 4.05905,-4.11835 7.89226,-8.4846 7.66675,-8.70772 -0.2686,-0.26575 -4.14883,3.64937 -7.88056,7.80258 -3.72733,4.14831 -7.32645,8.55511 -6.89391,9.1806 0.58377,0.84418 18.70361,-13.55545 18.24183,-14.1179 -1.90318,-2.31803 -15.84755,16.05287 -16.49989,15.28095 0.99917,1.18231 18.39248,-13.02769 18.25579,-13.23325 -0.33935,-0.5103 -17.79811,13.62486 -16.43716,14.89431 1.33298,1.24336 19.28978,-10.96542 19.16884,-11.22605 -0.1727,-0.37224 -18.05216,11.80622 -16.85553,12.64207 0.5501,0.38425 3.63382,-3.25928 6.50282,-7.07649 2.87349,-3.82316 5.50895,-7.79261 5.34376,-8.18187 -0.1901,-0.44796 -3.48587,3.64097 -6.64524,7.95519 -3.15447,4.30753 -6.19413,8.86563 -5.64601,9.20601 0.49931,0.31007 3.84497,-3.53299 7.01106,-7.47751 3.17034,-3.94982 6.14373,-7.98171 6.07899,-8.16789 -0.0864,-0.24846 -3.22966,3.67746 -6.21948,7.77553 -2.98497,4.09141 -5.8313,8.37207 -5.12631,8.69955 1.3448,0.62466 14.35637,-12.03924 14.18696,-12.80206 -0.21932,-0.98764 -13.77267,12.28559 -12.52464,12.7357 0.58769,0.21195 3.33652,-2.87555 5.89644,-6.10947 2.56352,-3.23848 4.92093,-6.60391 4.84616,-7.02977 -0.0875,-0.4985 -2.95157,2.8736 -5.65638,6.432 -2.70239,3.55524 -5.26108,7.3143 -4.59585,7.49874 1.2386,0.34342 12.12295,-10.65014 12.05953,-11.34903 -0.0827,-0.91091 -11.91854,11.11333 -9.3885,11.27706 2.41345,0.1562 11.48866,-4.15084 11.65537,-5.02354 0.20748,-1.08605 -9.06448,4.98692 -9.06448,4.98692 0,0 9.0794,-2.7513 9.61509,-5.56952 0.49222,-2.59015 -11.71884,5.02087 -11.65753,5.0248 0.23106,0.0148 9.56412,-9.28645 9.38109,-11.27279 -0.0849,-0.92132 -3.30908,1.85196 -6.40563,4.884 -3.0972,3.03264 -6.08562,6.341 -5.64837,6.46183 0.50299,0.13899 3.1643,-2.93346 5.63956,-6.24013 2.47986,-3.31283 4.75301,-6.83527 4.60257,-7.68477 -0.13683,-0.77262 -2.9894,2.42689 -5.73201,5.86352 -2.74158,3.43535 -5.39331,7.12991 -5.00184,7.27066 0.94544,0.33993 12.87498,-11.13444 12.5177,-12.73169 -0.16609,-0.74249 -3.83245,2.39057 -7.3984,5.74182 -3.5658,3.35112 -7.04726,6.93439 -6.78274,7.05689 0.32246,0.14934 3.35608,-3.52797 6.19293,-7.45349 2.84307,-3.93415 5.46472,-8.08637 5.14031,-9.01433 -0.3007,-0.8601 -3.69905,2.9275 -6.97052,6.99428 -3.26956,4.0644 -6.44117,8.43974 -6.10932,8.64521 0.38655,0.23935 3.64565,-3.74522 6.69288,-7.92993 3.05372,-4.19364 5.87014,-8.55664 5.58566,-9.22393 -0.25665,-0.60199 -3.29664,3.10085 -6.24962,7.01779 -2.94993,3.91289 -5.83274,8.06282 -5.58633,8.23442 0.58824,0.40968 17.67953,-10.86411 16.85187,-12.63995 -0.76343,-1.63809 -19.25219,11.1483 -19.16866,11.22595 0.23338,0.21702 17.3485,-13.51467 16.43034,-14.89037 -0.97351,-1.45865 -18.52901,12.90508 -18.25241,13.2313 1.93269,2.27935 16.15324,-15.68875 16.49265,-15.27675 -0.8241,-1.00038 -18.7737,13.34241 -18.23733,14.11528 0.20746,0.29886 4.19332,-3.70303 7.96732,-7.89409 3.77814,-4.19567 7.32527,-8.56139 6.79649,-9.08291 -0.48328,-0.47665 -4.57395,3.44666 -8.56832,7.50376 -3.99241,4.05511 -7.90343,8.2579 -7.90074,8.26272 0.0359,0.0636 3.29047,-4.61726 6.25029,-9.40385 2.96836,-4.80039 5.62342,-9.68219 4.7802,-10.2497 -0.7861,-0.52907 -3.61536,3.14034 -6.28332,6.98905 -2.66408,3.8431 -5.19243,7.89768 -5.15757,7.99539 0.11352,0.31816 16.27787,-12.10301 14.63871,-12.85715 -1.50139,-0.69077 -15.40792,9.35002 -15.21937,10.20224 0.22217,1.00418 16.13044,-9.83154 13.97278,-10.41687 -2.03067,-0.55088 -14.82184,6.89106 -14.82247,6.97094 -0.002,0.26534 10.82274,-9.30582 7.73219,-8.66201 -2.86005,0.5958 -7.93732,5.39151 -7.93732,5.39151 z" />
    <path
       style="fill:#ffffff;fill-opacity:1;stroke:none;stroke-width:0.73736501"
       id="path2236"
       d="m 513.61473,279.7878 c 0,0 0.41942,1.93597 0.77957,3.88241 0.34883,1.88527 0.67468,3.9493 0.6352,3.78977 -0.0713,-0.28807 -1.02376,-2.68801 -2.43741,-5.21937 -1.41707,-2.5375 -3.22783,-5.07009 -4.69848,-5.84762 -1.3577,-0.7178 0.17051,4.13197 1.63067,9.43577 1.47587,5.36086 2.80278,10.97806 2.75775,11.13359 -0.002,0.008 -1.62736,-5.31131 -3.85367,-10.39111 -2.23857,-5.10781 -5.01696,-9.90665 -5.70192,-9.97342 -0.53579,-0.0522 2.33594,5.06887 4.8864,10.55042 2.53947,5.45791 4.67759,11.23258 4.72597,11.15091 0.10183,-0.17185 -1.84532,-6.01674 -4.55426,-11.5698 -2.70495,-5.5449 -6.11496,-10.67338 -6.93252,-10.52054 -0.67372,0.12595 3.9558,4.31357 8.27545,8.80733 4.31278,4.4866 8.2643,9.23293 8.1904,9.28948 -0.003,0.002 -3.18127,-5.74977 -7.1684,-11.01154 -3.98392,-5.25752 -8.73686,-10.06609 -9.40817,-9.58127 -0.54847,0.39609 2.67786,6.28903 5.46131,12.40858 2.78594,6.12501 5.08749,12.52136 5.24956,12.4781 0.25548,-0.0682 -2.34338,-6.10251 -5.65017,-11.63797 -3.30502,-5.53252 -7.36582,-10.65193 -7.74639,-10.19382 -0.3209,0.38626 2.53911,6.15902 4.87561,12.19092 2.3365,6.0319 4.15666,12.31877 4.20603,12.3162 0.14728,-0.008 -2.00464,-5.98906 -4.75277,-11.45254 -2.74684,-5.46086 -6.15643,-10.54979 -6.44914,-9.95604 -0.25029,0.50771 2.34081,5.67799 4.52383,11.00784 2.18303,5.32983 3.96904,10.81284 4.04436,10.82635 0.17745,0.0318 -1.71747,-5.52564 -4.0972,-10.47689 -2.38302,-4.95811 -5.32226,-9.48989 -5.52494,-8.43865 -0.16986,0.88098 1.26726,5.57176 2.43751,9.99759 1.18628,4.48646 2.14509,8.89492 2.15764,8.90197 0.10918,0.0614 -1.07538,-4.25671 -2.46167,-8.05401 -1.39489,-3.82085 -3.02727,-7.2607 -2.90952,-6.10851 0.10671,1.04422 2.47985,2.3323 4.86692,3.47062 2.415,1.15163 4.81267,2.1369 5.29011,2.5368 0.58453,0.48961 -1.19807,-2.32295 -3.09222,-4.69946 -1.93237,-2.42446 -4.04015,-4.50766 -3.68934,-3.1506 0.29689,1.14841 1.33923,3.71157 2.13768,5.7244 0.83418,2.1029 1.53668,3.92505 1.53668,3.92505 0,0 -0.79286,-2.66345 -1.64596,-5.07485 -0.85394,-2.41375 -1.75568,-4.59429 -1.57189,-3.86275 0.37952,1.5106 5.04999,6.47318 6.71649,7.88768 0.83196,0.70616 -1.57436,-1.05864 -4.30888,-2.83742 -2.72234,-1.77087 -5.81769,-3.57467 -5.78249,-3.20797 0.0367,0.38202 1.01953,3.67361 2.06119,6.9199 1.04995,3.27211 2.22967,6.73696 3.21459,7.29781 0.96474,0.54937 0.18484,-4.38318 -1.16237,-9.23397 -1.35077,-4.86356 -3.32938,-9.65475 -3.31367,-9.73449 0.0144,-0.0733 2.41701,4.46479 4.59319,9.14924 2.17764,4.68759 4.21221,9.72021 4.89368,9.84454 0.72633,0.13252 -0.85552,-5.7634 -3.09966,-11.28762 -2.24111,-5.51676 -5.22149,-10.83189 -5.3205,-10.63219 -0.0911,0.18384 2.85295,5.27487 5.47115,10.61064 2.60728,5.31353 4.95622,10.91844 5.57667,10.88707 0.68155,-0.0344 -0.90667,-6.63929 -3.25779,-12.79222 -2.35136,-6.15352 -5.51853,-11.9793 -5.65941,-11.81002 -0.12645,0.15189 3.53466,5.35115 6.74989,10.82773 3.2152,5.47658 5.98138,11.23232 6.48323,11.0986 0.51618,-0.13755 -1.52646,-6.75421 -4.28897,-12.94344 -2.76841,-6.20247 -6.32885,-11.98575 -6.25014,-12.04259 0.0912,-0.0658 4.50977,4.99168 8.44834,10.28158 3.94595,5.29981 7.41156,10.82835 7.96145,10.4077 0.59527,-0.45538 -2.99154,-5.27679 -7.2206,-9.71891 -4.22482,-4.43773 -9.11572,-8.46188 -9.09263,-8.46618 -0.0203,0.004 3.23608,5.51343 5.97377,11.22031 2.74835,5.72915 4.99983,11.55763 5.35424,10.96187 0.38452,-0.64637 -1.37173,-6.29093 -3.77336,-11.60698 -2.40166,-5.31612 -5.37571,-10.1502 -5.68838,-10.18148 -0.31718,-0.0317 2.41977,5.30524 4.7662,10.69832 2.35817,5.42008 4.34235,10.78529 4.64631,9.74897 0.32169,-1.09681 -0.47674,-6.36327 -1.67519,-11.34298 -1.18455,-4.92197 -2.73442,-9.37994 -2.58555,-9.30023 0.13925,0.0746 2.39898,3.94782 4.30843,7.45907 1.81483,3.33738 3.42118,6.4765 2.74355,3.65645 -1.2085,-5.02938 -1.80535,-8.42215 -1.80535,-8.42215 z" />
    <path
       id="rect2262"
       d="m 271.53756,300.56978 c 0,0 0.67291,2.94075 0.61381,1.34219 -0.0641,-1.73304 -2.72447,-0.58383 -5.26187,-0.0729 -1.16965,0.23552 0.47945,2.04615 2.36873,3.59043 1.88682,1.54226 4.03527,2.83064 4.00807,2.01163 -0.0586,-1.76528 -9.48075,-4.34656 -12.04536,-3.83055 -1.17069,0.23555 1.87692,2.45991 5.13714,4.41374 3.25915,1.95318 6.75605,3.64631 6.72747,2.81615 -0.0613,-1.78036 -15.00799,-6.80151 -17.63126,-6.27356 -1.16747,0.23496 2.89531,3.17312 7.10974,5.83371 4.21611,2.66166 8.61113,5.05645 8.57445,4.21 -0.0399,-0.92034 -5.66638,-3.43189 -11.71176,-5.66427 -6.03239,-2.22758 -12.43901,-4.16215 -13.71674,-3.90453 -1.16194,0.23427 5.09841,4.13491 11.62879,7.86516 6.5409,3.73626 13.3643,7.30479 14.24005,6.90488 0.96427,-0.44034 -5.72264,-3.85638 -13.16478,-7.11192 -7.42988,-3.25016 -15.58556,-6.33 -16.87088,-6.07109 -1.16712,0.2351 4.74845,3.90941 11.0934,7.48079 6.35202,3.57535 13.14763,7.05336 14.54434,6.91574 1.53809,-0.15155 -5.15901,-3.50658 -12.7386,-6.76345 -7.57359,-3.2543 -16.02497,-6.41028 -17.31392,-6.15083 -1.17083,0.23568 4.30572,3.71719 10.23526,7.09648 5.93585,3.38287 12.33775,6.66868 13.73643,6.53087 1.53774,-0.1515 -5.09747,-3.36067 -12.60049,-6.47122 -7.49743,-3.10824 -15.8579,-6.11761 -17.14819,-5.85793 -1.17296,0.23607 3.78531,3.65313 9.20533,6.96799 5.42578,3.31837 11.32562,6.53967 12.72569,6.40175 1.53817,-0.15152 -4.61922,-3.24594 -11.63333,-6.24143 -7.00906,-2.99332 -14.8701,-5.88738 -16.16242,-5.62739 -1.17886,0.23716 3.26804,3.13475 8.23007,5.9322 4.96643,2.79994 10.45818,5.50359 11.86054,5.36532 1.53715,-0.15156 -4.15162,-3.20539 -10.69216,-6.16017 -6.53584,-2.95264 -13.91876,-5.8059 -15.20964,-5.54571 -1.17612,0.23707 3.61378,3.36674 8.89586,6.3953 5.28716,3.03148 11.07772,5.96625 12.47934,5.82806 1.5367,-0.15151 -4.24643,-3.06925 -10.869,-5.88753 -6.61815,-2.81638 -14.07098,-5.53289 -15.3629,-5.27251 -1.17782,0.23738 3.62717,3.35257 8.9264,6.36663 5.3043,3.01695 11.11407,5.93712 12.51687,5.79886 1.53763,-0.15154 -3.78414,-3.01538 -9.94081,-5.77961 -6.15259,-2.76239 -13.13543,-5.42475 -14.42941,-5.16415 -1.18172,0.23798 3.10292,3.04851 7.91181,5.75899 4.81305,2.71282 10.16012,5.32928 11.56445,5.19083 1.53712,-0.15155 -3.62097,-2.94585 -9.6076,-5.64036 -5.98277,-2.69276 -12.78943,-5.28526 -14.08334,-5.02451 -1.18119,0.23805 3.2712,3.16369 8.23735,5.9888 4.97062,2.82766 10.46529,5.5587 11.86984,5.42027 1.53689,-0.15147 -3.84749,-2.79278 -10.04815,-5.33388 -6.19702,-2.53959 -13.20557,-4.97842 -14.50117,-4.71747 -1.1832,0.23831 2.69441,3.14308 7.08951,5.94714 4.39913,2.80663 9.32541,5.51656 10.73135,5.37805 1.53758,-0.15149 -3.5321,-2.65775 -9.40792,-5.06346 -5.8726,-2.40438 -12.54664,-4.70758 -13.84498,-4.44632 -1.18802,0.23908 1.97277,2.80741 5.68207,5.27606 3.71235,2.47067 7.98122,4.845 9.3892,4.70626 1.53762,-0.15152 -3.00866,-2.56961 -8.35419,-4.8869 -5.34267,-2.31606 -11.48004,-4.5307 -12.77928,-4.26912 -1.19046,0.23968 1.84078,2.56966 5.43927,4.80069 3.60117,2.23268 7.77684,4.36924 9.18562,4.23034 1.53654,-0.15149 -3.04458,-2.43197 -8.41472,-4.61131 -5.3675,-2.17828 -11.51946,-4.25476 -12.8185,-3.99294 -1.19072,0.24 1.69164,2.55561 5.14265,4.77217 3.45357,2.2182 7.48287,4.34021 8.89201,4.20124 1.5366,-0.15154 -2.56075,-2.36065 -7.44199,-4.46846 -4.8789,-2.10679 -10.53731,-4.11161 -11.83704,-3.84951 -1.19179,0.24033 1.71468,2.50792 5.19356,4.67654 3.48138,2.17019 7.54216,4.24417 8.95196,4.10513 1.53655,-0.15154 -2.4304,-2.25813 -7.1746,-4.26314 -4.74209,-2.00413 -10.25712,-3.90602 -11.55794,-3.64368 -1.19222,0.24043 1.66816,2.64748 5.09148,4.95498 3.42599,2.30929 7.42223,4.52211 8.83301,4.38307 1.53756,-0.15154 -2.3117,-2.11743 -6.93044,-3.98143 -4.61688,-1.86325 -9.999,-3.62393 -11.30315,-3.36128 -1.19801,0.24127 1.19433,2.17728 4.18314,4.01506 2.99066,1.83895 6.58347,3.58183 7.99606,3.44257 1.53716,-0.15155 -2.13725,-2.01948 -6.57525,-3.7853 -4.43634,-1.76515 -9.63211,-3.42752 -10.9366,-3.16463 -1.19834,0.24151 0.6416,2.17098 3.0793,4.00203 2.43928,1.83224 5.48149,3.56833 6.89449,3.429 1.53727,-0.15159 -1.7132,-1.92369 -5.72193,-3.59347 -4.00732,-1.66918 -8.76895,-3.23535 -10.07451,-2.97215 -1.20002,0.24194 0.528,2.05566 2.86101,3.7712 2.33442,1.71658 5.27867,3.33702 6.69241,3.1976 1.53684,-0.15157 -1.8716,-1.74235 -6.02932,-3.23045 -4.15651,-1.48765 -9.0584,-2.87195 -10.3653,-2.60839 -1.20154,0.24231 0.11592,2.0321 2.04088,3.72356 1.92614,1.6925 4.46419,3.28876 5.87903,3.14925 1.53751,-0.15162 -1.4464,-1.60256 -5.17367,-2.95053 -3.72631,-1.34762 -8.19234,-2.59162 -9.5017,-2.32764 -2.49804,0.50363 5.36928,5.91289 8.03694,5.64978 3.22236,-0.31781 -9.86725,-5.61258 -12.41236,-5.09924 -1.20576,0.24319 0.36229,1.82091 2.54968,3.30073 2.18853,1.48061 5.00058,2.86495 6.41739,2.72527 3.20831,-0.3163 -9.01586,-5.32834 -11.57347,-4.81293 -1.20769,0.24338 0.35535,1.86008 2.53674,3.37872 2.18258,1.51945 4.98775,2.94255 6.40601,2.80283 3.18694,-0.31394 -9.0489,-4.86195 -11.62573,-4.3435 -2.47121,0.4972 1.10687,4.40546 3.85888,4.13417 3.15772,-0.31127 -8.88681,-4.26128 -11.47784,-3.73924 -2.49306,0.50231 3.26168,5.30435 5.97218,5.0373 3.14649,-0.31001 -7.14724,-3.91826 -9.75146,-3.39413 -2.46583,0.49627 -0.46724,3.85077 2.31092,3.57695 3.08261,-0.30384 -5.03664,-1.52461 -5.03664,-1.52461 0,0 1.96683,1.82718 5.03664,1.52461 2.91718,-0.28753 0.0868,-4.05952 -2.31092,-3.57695 -2.66498,0.53636 6.72911,3.69191 9.75146,3.39413 2.98952,-0.29454 -3.61557,-5.51211 -5.97218,-5.0373 -2.66517,0.53699 8.47165,4.03559 11.47784,3.73924 2.93911,-0.28972 -1.47935,-4.61292 -3.85888,-4.13417 -2.67776,0.53876 8.64491,4.63714 11.62573,4.3435 1.42349,-0.14022 -0.16618,-1.80686 -2.45586,-3.3787 -2.28884,-1.57126 -5.27481,-3.04711 -6.48689,-2.80285 -2.6818,0.54044 8.61902,5.1042 11.57347,4.81293 1.42176,-0.14017 -0.177,-1.76785 -2.47286,-3.30074 -2.29503,-1.53235 -5.28433,-2.96929 -6.49421,-2.72526 -2.68467,0.54148 9.47538,5.38891 12.41236,5.09924 1.42036,-0.14009 0.0492,-1.67367 -2.01389,-3.11242 -2.06242,-1.43827 -4.81405,-2.78111 -6.02305,-2.53736 -2.68812,0.54195 11.74915,5.56672 14.67537,5.27817 1.42146,-0.14017 0.094,-1.97902 -1.94073,-3.72357 -2.0338,-1.7438 -4.7719,-3.39271 -5.97918,-3.14924 -1.30373,0.26292 2.06214,1.79931 6.10128,3.23043 4.04089,1.43175 8.76067,2.75956 10.29334,2.60841 1.42041,-0.14009 -0.31471,-2.00273 -2.75803,-3.7712 -2.44226,-1.76771 -5.58967,-3.44068 -6.79539,-3.1976 -1.30127,0.26235 1.92418,1.9807 5.81314,3.59346 3.89093,1.61357 8.45148,3.12321 9.9833,2.97216 1.42061,-0.14009 -0.41334,-2.11801 -2.9621,-4.00203 -2.54755,-1.88313 -5.8068,-3.67182 -7.01169,-3.429 -1.29973,0.26194 2.36024,2.07646 6.67756,3.78529 4.31958,1.70974 9.30318,3.31559 10.83429,3.16464 1.42007,-0.14001 -0.96482,-2.12447 -4.06508,-4.01508 -3.09886,-1.88974 -6.90981,-3.68509 -8.11412,-3.44255 -1.29879,0.26156 2.54735,2.1744 7.04474,3.98142 4.49985,1.80802 9.65806,3.51216 11.18885,3.36129 1.42264,-0.14021 -1.36787,-2.59408 -4.906,-4.95498 -3.53599,-2.35946 -7.81604,-4.62557 -9.01849,-4.38307 -1.29446,0.26105 2.68598,2.31514 7.30727,4.26315 4.62406,1.94916 9.89663,3.79443 11.42527,3.64367 1.42018,-0.14006 -1.43646,-2.45488 -5.02961,-4.67654 -3.59114,-2.22043 -7.91528,-4.34725 -9.11591,-4.10513 -1.29262,0.26066 2.83145,2.4177 7.5889,4.46846 4.76044,2.05205 10.16233,4.00018 11.69013,3.84951 1.42002,-0.14004 -1.40586,-2.50258 -4.97142,-4.77216 -3.56352,-2.26827 -7.86321,-4.44312 -9.06324,-4.20125 -1.29157,0.26033 3.32643,2.48898 8.57197,4.61133 5.24888,2.1237 11.13401,4.1435 12.66125,3.99292 1.41975,-0.13998 -1.55267,-2.51676 -5.26583,-4.80068 -3.71103,-2.28261 -8.15924,-4.47192 -9.35906,-4.23035 -1.29056,0.25983 3.31219,2.62669 8.53236,4.88691 5.22377,2.26177 11.07413,4.41958 12.60111,4.26911 1.42148,-0.14008 -1.6446,-2.75422 -5.47002,-5.27605 -3.8229,-2.52017 -8.40153,-4.94769 -9.60125,-4.70627 -1.28912,0.25942 3.85072,2.7148 9.60019,5.06346 5.75351,2.35031 12.12648,4.59668 13.65271,4.44632 1.42323,-0.14022 -2.30226,-3.08947 -6.81637,-5.94714 -4.51072,-2.85554 -9.80633,-5.61937 -11.00449,-5.37805 -1.28528,0.25887 4.19033,2.84987 10.26305,5.33387 6.0772,2.48584 12.76208,4.8677 14.28627,4.71748 1.42184,-0.14013 -2.87402,-3.11021 -7.96012,-5.9888 -5.08235,-2.87645 -10.95114,-5.66128 -12.14707,-5.42027 -1.28191,0.25834 3.99216,3.0031 9.84964,5.64035 5.86217,2.63936 12.31875,5.17462 13.8413,5.02452 1.42025,-0.14002 -2.72851,-2.99535 -7.65651,-5.759 -4.92452,-2.7617 -10.62451,-5.43153 -11.81975,-5.19082 -1.28135,0.25805 4.1687,3.07267 10.19569,5.7796 6.03195,2.70916 12.65221,5.31419 14.17453,5.16416 1.42244,-0.14019 -3.19024,-3.2989 -8.61111,-6.36664 -5.41656,-3.06528 -11.63756,-6.03962 -12.83216,-5.79885 -1.279,0.25777 4.64229,3.1265 11.13411,5.88751 6.49717,2.7633 13.57685,5.42248 15.09779,5.27253 1.42147,-0.14015 -3.17355,-3.31316 -8.57755,-6.39531 -5.39966,-3.07968 -11.60453,-6.06854 -12.79765,-5.82805 -1.27635,0.25727 4.57519,3.26281 10.98391,6.16016 6.41433,2.8999 13.39826,5.69555 14.91789,5.54572 1.41927,-0.13994 -2.87631,-3.08171 -7.95825,-5.9322 -5.07825,-2.8484 -10.93908,-5.60538 -12.13236,-5.36532 -1.27765,0.25704 5.05124,3.3033 11.93328,6.24142 6.88802,2.94069 14.34214,5.77716 15.86247,5.6274 1.42405,-0.14027 -3.28064,-3.59913 -8.82437,-6.96799 -5.53878,-3.36584 -11.91297,-6.64199 -13.10665,-6.40175 -1.27457,0.25652 5.55482,3.41806 12.92424,6.47123 7.376,3.0559 15.30585,6.00754 16.82444,5.85792 1.42334,-0.14023 -3.78506,-3.66325 -9.83946,-7.09647 -6.04894,-3.43013 -12.94025,-6.77081 -14.13223,-6.53088 -1.27149,0.25594 5.64925,3.56413 13.09388,6.76347 7.45165,3.20234 15.44169,6.30028 16.95864,6.15081 1.42417,-0.14032 -4.17978,-3.85518 -10.65157,-7.48079 -6.46559,-3.62216 -13.7955,-7.15559 -14.98617,-6.91574 -1.26673,0.25516 5.95449,3.77431 13.53353,7.11191 7.58862,3.34181 15.55065,6.50559 16.50213,6.0711 0.89417,-0.40833 -4.75708,-4.208 -11.16499,-7.86517 -6.39483,-3.64971 -13.51678,-7.14421 -14.70385,-6.90487 -1.26761,0.25557 5.22659,3.10949 11.90063,5.66426 6.67582,2.55546 13.5676,4.82145 13.52787,3.90454 -0.037,-0.85417 -3.26432,-3.46579 -6.89999,-5.83372 -3.62152,-2.35871 -7.60403,-4.44751 -8.7842,-4.20999 -1.27197,0.25599 3.20563,2.27506 7.93253,4.00239 4.72533,1.72677 9.72967,3.1699 9.69873,2.27117 -0.0563,-1.63519 -9.40481,-7.72481 -11.86461,-7.22989 -1.27311,0.25616 1.77552,1.65688 5.10801,2.77076 3.32989,1.11301 6.96675,1.94514 6.93735,1.05979 -0.0538,-1.62097 -3.9727,-6.08614 -6.3768,-5.60206 -2.55339,0.51415 5.32583,1.80274 5.26187,0.0729 -0.0591,-1.59848 -0.61381,-1.34219 -0.61381,-1.34219 z"
       style="fill:url(#radialGradient5512);fill-opacity:1;stroke:none;stroke-width:0.99999881" />
    <text
       id="text3032"
       y="399.50522"
       x="90.406364"
       style="font-style:normal;font-variant:normal;font-weight:normal;font-stretch:normal;font-size:11.99998569px;line-height:0%;font-family:'Roadgeek 2005 Series D';-inkscape-font-specification:'Roadgeek 2005 Series D';letter-spacing:0px;word-spacing:0px;fill:#ffffff;fill-opacity:1;stroke:none;stroke-width:0.99999881"
       xml:space="preserve"><tspan
         style="font-style:normal;font-variant:normal;font-weight:normal;font-stretch:normal;font-size:84.99990082px;line-height:1.25;font-family:'Roadgeek 2005 Series EM';-inkscape-font-specification:'Roadgeek 2005 Series EM';fill:#ffffff;stroke-width:0.99999881"
         y="399.50522"
         x="90.406364"
         id="tspan3034">Simutrans</tspan></text>
    <text
       transform="rotate(-18.084608)"
       id="text3081"
       y="269.12674"
       x="159.60675"
       style="font-style:normal;font-weight:normal;font-size:11.99998569px;line-height:0%;font-family:sans-serif;letter-spacing:0px;word-spacing:0px;fill:#ffffff;fill-opacity:1;stroke:none;stroke-width:0.99999881"
       xml:space="preserve"><tspan
         style="font-style:normal;font-variant:normal;font-weight:normal;font-stretch:normal;font-size:39.99995041px;line-height:1.25;font-family:harrison;-inkscape-font-specification:harrison;fill:#ffffff;stroke-width:0.99999881"
         y="269.12674"
         x="159.60675"
         id="tspan3083">Extended</tspan></text>
    <path
       style="fill:#ffffff;fill-opacity:1;stroke:none;stroke-width:0.99999881"
       d="m 433.09798,337.30032 c 0,0 -0.65785,-2.41928 -7.81216,-6.10594 -3.50399,-1.80563 -3.49122,-0.0806 -2.70277,1.91249 0.81079,2.04952 2.36996,4.53655 3.80835,4.53714 1.64545,6.6e-4 -0.89025,-2.64041 -5.00185,-5.38321 -4.14132,-2.76261 -9.78868,-5.56764 -12.03203,-5.99393 -1.96376,-0.37315 0.3298,2.61544 2.62533,5.72811 2.28855,3.1032 4.535,6.30231 5.96196,6.30289 1.67558,6.8e-4 -0.75992,-3.28426 -5.05686,-6.62086 -4.31226,-3.34849 -10.45258,-6.71315 -12.45156,-6.93137 -1.70486,-0.18612 1.08789,3.13137 3.66474,6.52188 2.57066,3.38235 4.89453,6.81354 6.31404,6.81412 1.70864,6.9e-4 -1.67891,-3.87314 -7.26434,-7.76418 -5.59251,-3.89598 -13.36701,-7.79466 -15.1941,-7.86831 -1.51799,-0.0612 1.6401,3.4498 4.44092,6.98775 2.79799,3.53436 5.22609,7.08518 6.64252,7.08575 1.6846,6.8e-4 -1.39541,-3.36853 -6.30611,-6.73387 -4.90962,-3.36461 -11.6526,-6.7278 -13.31074,-6.71134 -1.39543,0.0138 2.28539,3.57139 5.56235,7.12271 3.27776,3.55216 6.15515,7.10092 7.57354,7.10149 1.68654,6.9e-4 -1.11778,-3.39036 -5.75087,-6.76742 -4.6294,-3.37436 -11.09549,-6.74305 -12.69103,-6.68415 -1.34278,0.0496 1.97389,3.5735 4.90099,7.0745 2.92981,3.50425 5.48174,6.99555 6.9039,6.99613 1.69004,6.9e-4 -1.04986,-3.44533 -5.63962,-6.86846 -4.58383,-3.41871 -11.02976,-6.82803 -12.57362,-6.73184 -1.30015,0.081 1.58119,3.52616 4.11767,6.9339 2.54042,3.41302 4.75329,6.80473 6.1811,6.80531 1.68031,6.8e-4 -1.20977,-3.25251 -5.83881,-6.4868 -4.62436,-3.23103 -10.99746,-6.45316 -12.56079,-6.37402 -1.33107,0.0674 1.43532,3.37382 3.94514,6.65058 2.51286,3.28072 4.78265,6.54384 6.21618,6.54442 1.70168,6.9e-4 -0.89949,-3.6778 -5.50707,-7.33736 -4.60218,-3.65528 -11.22209,-7.3047 -12.79991,-7.22449 -1.33033,0.0676 1.93773,3.29953 4.99009,6.50234 3.05597,3.20658 5.91135,6.39554 7.34833,6.39612 1.67686,6.8e-4 -0.93322,-3.17767 -5.23743,-6.3371 -4.29992,-3.15631 -10.3026,-6.30329 -11.85903,-6.22418 -1.33381,0.0678 1.43722,3.23669 4.0309,6.37686 2.59669,3.1438 5.02924,6.26998 6.46904,6.27057 1.66703,6.7e-4 -0.67348,-2.95691 -4.58553,-5.89557 -3.90847,-2.93598 -9.39531,-5.86129 -10.94666,-5.78258 -1.3407,0.068 1.49108,3.16032 4.18931,6.2244 2.70128,3.06754 5.28229,6.11745 6.72541,6.11803 1.67866,6.8e-4 -0.65159,-3.21682 -4.6993,-6.41538 -4.04361,-3.19534 -9.8127,-6.38162 -11.37312,-6.30233 -1.34182,0.0682 1.49772,3.10477 4.23409,6.11351 2.73942,3.01207 5.38884,6.00649 6.83436,6.00707 1.66413,6.8e-4 -0.54029,-2.88889 -4.28029,-5.75952 -3.73665,-2.86806 -9.01509,-5.72506 -10.56511,-5.64639 -1.34605,0.0683 0.79615,3.04752 2.86913,5.99915 2.07528,2.95487 4.09212,5.89208 5.54004,5.89267 1.65708,6.7e-4 -0.80785,-2.71605 -4.72112,-5.41383 -3.91003,-2.69554 -9.27451,-5.37899 -10.8223,-5.30059 -1.35428,0.0686 0.50616,2.94318 2.3544,5.79081 1.8502,2.85065 3.6979,5.68362 5.15007,5.68421 1.66493,6.8e-4 -0.84456,-2.90842 -4.90097,-5.79854 -4.05278,-2.88754 -9.65954,-5.76404 -11.21422,-5.68521 -1.35862,0.0689 0.69753,2.84007 2.79337,5.58495 2.09798,2.74768 4.24575,5.47766 5.70199,5.47825 1.66769,6.7e-4 -0.60825,-2.97273 -4.46495,-5.92714 -3.85314,-2.95169 -9.29378,-5.89275 -10.84851,-5.81372 -1.35875,0.0691 0.41363,2.76879 2.2611,5.44259 1.84932,2.67648 3.78287,5.33524 5.24187,5.33583 1.65844,6.7e-4 -0.67467,-2.74972 -4.47211,-5.48111 -3.79424,-2.72909 -9.05879,-5.44627 -10.60477,-5.36761 -1.36212,0.0693 0.62361,2.679 2.72673,5.26329 2.10517,2.58679 4.3373,5.15584 5.79964,5.15644 1.65217,6.7e-4 -0.47347,-2.58793 -3.98494,-5.15752 -3.50867,-2.56756 -8.40804,-5.12237 -9.94931,-5.04393 -1.36523,0.0695 0.43134,2.61041 2.3779,5.12631 1.9484,2.51828 4.05567,5.0188 5.52047,5.0194 1.63828,6.6e-4 -0.43838,-2.18896 -3.72858,-4.35957 -3.28805,-2.16922 -7.7931,-4.32377 -9.32778,-4.2459 -1.37335,0.0697 -0.043,2.52434 1.47867,4.95438 1.5231,2.43228 3.24499,4.84678 4.71274,4.84738 1.6514,6.7e-4 -0.12959,-2.56834 -3.28828,-5.11831 -3.15621,-2.54797 -7.69415,-5.08309 -9.23945,-5.00457 -1.37465,0.0699 -0.10793,2.4529 1.38116,4.81168 1.49043,2.36089 3.21037,4.704 4.68056,4.70459 1.64545,6.7e-4 -0.57574,-2.40342 -4.09992,-4.78848 -3.52163,-2.38333 -8.3507,-4.75294 -9.89047,-4.67463 -1.37814,0.0701 -0.0156,2.35659 1.60954,4.61933 1.62657,2.26468 3.52304,4.51156 4.99636,4.51215 1.64219,6.7e-4 -0.41517,-2.30796 -3.73457,-4.59753 -3.31708,-2.288 -7.90001,-4.56182 -9.43708,-4.4836 -1.38043,0.0702 -0.60614,2.27644 0.46476,4.45918 1.0718,2.18458 2.44581,4.35133 3.92165,4.35193 1.6343,6.6e-4 -0.56718,-2.06022 -3.93272,-4.10205 -3.36352,-2.0406 -7.89441,-4.06593 -9.42705,-3.98798 -1.38662,0.0705 -0.69614,2.15731 0.33779,4.2212 1.03474,2.06554 2.41813,4.11322 3.8975,4.11382 1.63635,6.7e-4 -10e-4,-2.12724 -2.82822,-4.23607 -2.82527,-2.10749 -6.84266,-4.20003 -8.37728,-4.12191 -1.38926,0.0707 -0.3469,2.07359 1.06885,4.05398 1.41684,1.98189 3.21295,3.94592 4.6947,3.94652 1.62682,6.6e-4 0.29768,-1.79466 -2.1031,-3.5709 -2.39953,-1.77531 -5.872,-3.53441 -7.40204,-3.45667 -1.39433,0.0709 -0.45783,2.0142 0.87426,3.93531 1.33308,1.92255 3.06725,3.82721 4.5506,3.82781 1.62127,6.5e-4 0.4817,-1.57084 -1.66241,-3.12326 -2.14314,-1.55172 -5.29152,-3.0865 -6.82298,-3.00896 -1.40146,0.071 -0.92304,1.95458 -0.0261,3.81617 0.8976,1.86295 2.21813,3.708 3.70301,3.7086 1.63675,6.6e-4 -0.10277,-2.14192 -3.03916,-4.2654 -2.9345,-2.12211 -7.0686,-4.22928 -8.60985,-4.151 -1.40037,0.0711 -1.16998,1.8701 -0.49339,3.64735 0.67707,1.77852 1.80407,3.53911 3.29115,3.53971 1.61982,6.6e-4 0.37413,-1.50688 -1.85852,-2.99532 -2.23171,-1.4878 -5.4511,-2.95843 -6.98273,-2.88083 -1.40738,0.0713 -1.14451,1.77932 -0.4058,3.46597 0.7392,1.68778 1.95793,3.35762 3.44716,3.35822 1.62767,6.6e-4 -0.003,-1.82879 -2.71741,-3.63912 -2.71333,-1.80936 -6.5129,-3.60254 -8.04978,-3.52453 -1.40811,0.0715 -1.49233,1.69003 -1.07372,3.28751 0.41889,1.59851 1.3435,3.17907 2.8348,3.17968 1.62809,6.6e-4 0.0104,-1.84352 -2.69588,-3.66856 -2.70486,-1.82405 -6.50017,-3.63196 -8.03445,-3.55386 -1.4078,0.0717 -1.2807,1.59153 -0.62414,3.09066 0.65696,1.50005 1.84652,2.98212 3.33997,2.98273 1.61299,6.5e-4 0.70681,-1.15762 -1.102,-2.29676 -1.80825,-1.13878 -4.51914,-2.25949 -6.04681,-2.18198 -1.41496,0.0718 -1.57717,1.51646 -1.1881,2.94065 0.3893,1.425 1.33241,2.83202 2.82733,2.83263 1.61739,6.6e-4 0.0791,-1.39291 -2.41679,-2.7673 -2.49494,-1.37388 -5.94835,-2.73017 -7.48075,-2.65241 -1.41824,0.072 -1.81557,1.41157 -1.63483,2.73098 0.18085,1.32013 0.94177,2.62226 2.43869,2.62286 1.61843,6.6e-4 0.2648,-1.44285 -2.05903,-2.86718 -2.32292,-1.42377 -5.61682,-2.83008 -7.14907,-2.75219 -1.41901,0.0721 -2.1352,1.31264 -2.25029,2.53321 -0.11515,1.22121 0.3722,2.42439 1.87087,2.425 1.61377,6.6e-4 0.16986,-1.20318 -2.18677,-2.38781 -2.35589,-1.18426 -5.62501,-2.35045 -7.15439,-2.27267 -1.42217,0.0723 -2.25675,1.19052 -2.46422,2.2891 -0.20756,1.0991 0.21312,2.18016 1.71375,2.18077 1.60956,6.5e-4 0.4962,-0.9369 -1.47878,-1.85523 -1.97455,-0.91812 -4.81071,-1.81766 -6.34004,-1.73997 -1.42722,0.0725 -2.05815,1.07543 -2.03982,2.05901 0.0183,0.98399 0.68723,1.94992 2.18949,1.95053 1.61099,6.5e-4 0.82359,-1.03574 -0.84321,-2.0529 -1.66635,-1.0169 -4.21193,-2.01538 -5.7425,-1.93757 -1.42826,0.0726 -2.40972,0.9966 -2.72802,1.90138 -0.31842,0.90515 0.0271,1.79221 1.53035,1.79282 3.25697,10e-4 -3.00691,-1.8234 -6.0732,-1.66813 -1.43704,0.0728 -2.36307,0.88462 -2.60709,1.6775 -0.24411,0.79316 0.19453,1.56821 1.69903,1.56882 1.6152,6.6e-4 0.75261,-1.28333 -1.04189,-2.54804 -1.79388,-1.26428 -4.51974,-2.51063 -6.05475,-2.4325 -1.43169,0.0729 -2.4926,0.8066 -2.86234,1.52148 -0.36986,0.71512 -0.048,1.41212 1.45734,1.41273 1.60575,6.5e-4 0.53504,-0.60761 -1.35187,-1.19659 -1.88672,-0.58891 -4.58938,-1.15874 -6.11933,-1.08091 -2.8768,0.14635 -6.08463,2.4674 -3.15771,2.46859 3.20739,10e-4 -1.85643,-0.41206 -4.9306,-0.25634 -2.89286,0.14653 -4.46964,1.97566 -1.509,1.97686 1.60715,6.5e-4 0.98921,-0.75119 -0.4639,-1.48372 -1.45289,-0.7324 -3.7406,-1.44585 -5.27663,-1.36781 -2.8866,0.14665 -6.82839,1.65622 -3.84995,1.65743 3.22112,10e-4 -3.57803,-0.97416 -3.57803,-0.97416 0,0 0.38804,0.97287 3.57803,0.97416 3.06745,10e-4 6.73727,-1.80412 3.84995,-1.65743 -1.52963,0.0777 -0.85307,0.79068 0.56376,1.48371 1.41724,0.69324 3.57695,1.36717 5.17677,1.36782 3.08741,10e-4 4.40288,-2.12344 1.509,-1.97686 -3.07414,0.15572 1.72491,0.25504 4.9306,0.25634 1.51188,6.2e-4 3.05868,-0.65313 3.83007,-1.28873 0.77127,-0.6355 0.7684,-1.25315 -0.67236,-1.17986 -3.05676,0.1555 4.3411,2.27623 7.4712,2.2775 1.51312,6.2e-4 2.63557,-0.7695 2.96811,-1.52148 0.33248,-0.75184 -0.12371,-1.48599 -1.56311,-1.41273 -1.51448,0.0771 -0.40618,1.32309 1.34688,2.54804 1.75392,1.22555 4.15688,2.43186 5.74976,2.4325 1.514,6.2e-4 2.52677,-0.8475 2.7366,-1.67749 0.20977,-0.82981 -0.3821,-1.64207 -1.82854,-1.56883 -3.06555,0.15523 2.90634,1.66685 6.0732,1.66813 1.51554,6.2e-4 2.61544,-0.95943 2.89575,-1.90137 0.28024,-0.9417 -0.25756,-1.86606 -1.69808,-1.79283 -1.51759,0.0772 -0.58658,1.07522 1.03892,2.0529 1.62617,0.97807 3.95013,1.93692 5.54679,1.93757 1.51671,6.1e-4 2.29401,-1.03824 2.23742,-2.05901 -0.0566,-1.02047 -0.94568,-2.02375 -2.38709,-1.95053 -1.5191,0.0772 -0.29623,0.97627 1.63762,1.85522 1.93452,0.87927 4.5833,1.73933 6.1812,1.73998 1.51859,6.1e-4 2.54226,-1.15329 2.70984,-2.28912 0.16751,-1.13545 -0.51934,-2.25398 -1.95937,-2.18075 -1.51192,0.0769 0.14077,1.2427 2.45378,2.3878 2.31406,1.1456 5.29315,2.27203 6.88738,2.27268 1.52077,6.2e-4 2.47809,-1.27533 2.55255,-2.53322 0.0744,-1.25742 -0.7322,-2.49823 -2.17313,-2.42499 -1.50633,0.0766 0.16822,1.48257 2.44731,2.86718 2.28031,1.38535 5.17076,2.75155 6.76079,2.75219 1.52268,6.2e-4 2.20847,-1.3742 1.98728,-2.73099 -0.22109,-1.35623 -1.34759,-2.69611 -2.79114,-2.62285 -1.5085,0.0765 0.32623,1.43252 2.77796,2.76729 2.45299,1.33545 5.52862,2.65177 7.11958,2.65242 1.52488,6.2e-4 2.02839,-1.47903 1.59797,-2.94065 -0.43022,-1.46098 -1.79297,-2.9059 -3.2372,-2.83263 -1.51124,0.0767 -0.41635,1.197 1.34857,2.29675 1.76571,1.10023 4.20529,2.18134 5.80024,2.18199 1.52657,6.2e-4 1.77878,-1.55403 1.07774,-3.09067 -0.70072,-1.53591 -2.35361,-3.05602 -3.79357,-2.98272 -1.49099,0.0759 0.68025,1.8836 3.3374,3.66855 2.65893,1.78616 5.8117,3.55323 7.39293,3.55387 1.52886,6.2e-4 2.0498,-1.65245 1.58807,-3.28752 -0.46151,-1.63424 -1.90423,-3.25301 -3.34915,-3.17967 -1.49432,0.0758 0.6814,1.86882 3.34853,3.63911 2.66891,1.77149 5.8371,3.5239 7.41866,3.52454 1.53105,6.2e-4 1.76009,-1.74167 0.97853,-3.46597 -0.78115,-1.72339 -2.57185,-3.43159 -4.01989,-3.35822 -1.50306,0.0762 0.0963,1.5465 2.28311,2.99532 2.18806,1.44963 4.96934,2.88019 6.55814,2.88083 1.53345,6.3e-4 1.85055,-1.83235 1.12865,-3.64736 -0.7215,-1.81397 -2.4808,-3.61313 -3.92641,-3.5397 -1.4821,0.0753 1.02442,2.18231 3.91037,4.26539 2.88818,2.0847 6.16552,4.15037 7.73864,4.15101 1.53573,6.2e-4 1.66343,-1.91676 0.72248,-3.81618 -0.94039,-1.89828 -2.94856,-3.78205 -4.39939,-3.70859 -1.50015,0.076 0.0274,1.61047 2.12482,3.12325 2.09868,1.51368 4.77308,3.00832 6.36057,3.00897 1.53746,6.2e-4 1.24637,-1.97633 -0.13306,-3.93532 -1.37859,-1.95779 -3.84545,-3.90129 -5.2918,-3.8278 -1.4888,0.0756 0.36015,1.83453 2.71047,3.57091 2.35186,1.73751 5.21222,3.45602 6.79467,3.45666 1.53922,6.2e-4 1.1834,-2.03565 -0.28161,-4.05397 -1.46409,-2.01706 -4.03748,-4.02006 -5.48194,-3.94653 -1.47616,0.0751 0.91378,2.16755 3.68738,4.23608 2.77574,2.07012 5.94452,4.12127 7.51812,4.1219 1.54174,6.3e-4 1.59966,-2.11925 0.51667,-4.22119 -1.08226,-2.10054 -3.3048,-4.18744 -4.75196,-4.11383 -1.4787,0.0752 1.4257,2.10038 4.73766,4.10206 3.31441,2.00315 7.04659,3.98733 8.62211,3.98797 1.54552,6.3e-4 1.61159,-2.23824 0.4901,-4.45917 -1.12068,-2.21937 -3.42837,-4.42564 -4.87651,-4.35194 -1.46841,0.0747 1.48506,2.34846 4.74884,4.59755 3.2665,2.25094 6.85468,4.48295 8.42281,4.48358 1.54818,6.3e-4 1.0925,-2.3183 -0.58395,-4.61932 -1.67522,-2.29934 -4.57185,-4.58591 -6.02195,-4.51216 -1.46526,0.0745 1.73328,2.44405 5.20134,4.78849 3.47107,2.34646 7.22401,4.67399 8.78905,4.67462 1.55147,6.3e-4 1.27319,-2.41447 -0.26731,-4.81166 -1.53933,-2.39537 -4.34128,-4.77845 -5.79441,-4.70461 -1.45904,0.0742 1.44632,2.60924 4.54866,5.11833 3.10523,2.51141 6.41969,5.00392 7.97907,5.00455 1.554,6.3e-4 1.27571,-2.48582 -0.29697,-4.95438 -1.57144,-2.46661 -4.43778,-4.92129 -5.89444,-4.84738 -1.47321,0.0747 1.40387,2.22917 4.63938,4.35958 3.23804,2.13207 6.8452,4.24525 8.41698,4.24589 1.55719,6.3e-4 0.88903,-2.57178 -1.11181,-5.12631 -1.99921,-2.55245 -5.3327,-5.09339 -6.78656,-5.0194 -1.45419,0.074 1.81245,2.62879 5.26496,5.15752 3.45571,2.53108 7.11056,5.0433 8.66929,5.04393 1.55979,6.3e-4 0.76675,-2.64026 -1.39133,-5.26328 -2.15628,-2.62083 -5.67962,-5.23051 -7.13504,-5.15645 -1.4476,0.0737 2.18239,2.79086 5.91974,5.48113 3.74104,2.6929 7.60437,5.36696 9.15714,5.36759 1.56327,6.4e-4 1.07007,-2.72991 -0.83216,-5.44258 -1.90056,-2.71032 -5.21161,-5.41002 -6.67081,-5.33584 -1.43898,0.0731 2.36447,3.01428 6.1605,5.92714 3.80007,2.91596 7.60904,5.81309 9.15296,5.81372 1.56611,6.3e-4 0.86186,-2.80108 -1.2879,-5.58493 -2.14784,-2.78138 -5.74335,-5.55251 -7.20746,-5.47827 -1.44445,0.0733 2.52598,2.9498 6.52306,5.79856 4.00123,2.85169 8.04561,5.68457 9.59213,5.68519 1.57036,6.4e-4 1.16734,-2.904 -0.73475,-5.79079 -1.90032,-2.88411 -5.30131,-5.75861 -6.76972,-5.68423 -1.45207,0.0736 2.27837,2.75701 6.13313,5.41383 3.85849,2.65938 7.85629,5.29996 9.41029,5.30059 1.57485,6.3e-4 0.99969,-3.00817 -1.12969,-5.99915 -2.1273,-2.98808 -5.81117,-5.96719 -7.27948,-5.89267 -1.44076,0.0731 2.20152,2.93017 5.88047,5.75952 3.68273,2.83227 7.4176,5.64576 8.96493,5.64639 1.57738,6.4e-4 0.36777,-3.06534 -2.42708,-6.11349 -2.79212,-3.04517 -7.17381,-6.08166 -8.64137,-6.00709 -1.42432,0.0724 2.70477,3.25879 6.68873,6.4154 3.98854,3.16022 7.85023,6.30169 9.38369,6.30231 1.57985,6.4e-4 0.44059,-3.12078 -2.31554,-6.22439 -2.75337,-3.10051 -7.1279,-6.19269 -8.59918,-6.11804 -1.43696,0.0729 2.41299,2.99829 6.26301,5.89559 3.85409,2.90034 7.7246,5.78193 9.26918,5.78256 1.58337,6.4e-4 0.58997,-3.19702 -2.06335,-6.37686 -2.6506,-3.17658 -6.9653,-6.34535 -8.43659,-6.27057 -1.42427,0.0724 2.93896,3.21947 7.17823,6.33711 4.24405,3.12114 8.38302,6.22355 9.91823,6.22417 1.5863,6.5e-4 0.1696,-3.25975 -2.94367,-6.50234 -3.11003,-3.23921 -7.92231,-6.47097 -9.39475,-6.39612 -1.39925,0.0711 3.57536,3.72079 8.11535,7.33736 4.54593,3.62128 8.6803,7.22388 10.19163,7.22449 1.5898,6.5e-4 0.76431,-3.33386 -1.80353,-6.65057 -2.56508,-3.31314 -6.87659,-6.61942 -8.35779,-6.54443 -1.42519,0.0722 3.30775,3.29441 7.87328,6.48681 4.57078,3.19604 8.9945,6.37339 10.52632,6.37401 1.59723,6.4e-4 0.81323,-3.4774 -1.79582,-6.9339 -2.60551,-3.45181 -7.04131,-6.89638 -8.50295,-6.80531 -1.39103,0.0867 3.40453,3.49654 7.91472,6.86846 4.51693,3.37695 8.77454,6.73122 10.29852,6.73184 1.59982,6.5e-4 0.50699,-3.54352 -2.46564,-7.0745 -2.97007,-3.52796 -7.82433,-7.05205 -9.33925,-6.99613 -1.44118,0.0532 3.39283,3.42169 7.97663,6.76742 4.58783,3.34866 8.94115,6.68353 10.46527,6.68415 1.59994,6.5e-4 0.21665,-3.56285 -3.07348,-7.1227 -3.28934,-3.55902 -8.48716,-7.11713 -10.06241,-7.1015 -1.49832,0.0149 3.63335,3.37745 8.52986,6.73387 4.89762,3.35719 9.56465,6.71072 11.08699,6.71134 1.59418,6.5e-4 0.73915,-3.48544 -2.0046,-6.98775 -2.74681,-3.50621 -7.37755,-7.01717 -9.07884,-7.08575 -1.59462,-0.0643 4.62004,3.83453 10.2703,7.76418 5.64375,3.9251 10.69886,7.8677 12.18814,7.86831 1.57939,6.4e-4 0.94134,-3.23631 -1.47803,-6.52187 -2.42727,-3.29629 -6.62377,-6.60922 -8.50075,-6.81413 -1.80908,-0.1975 2.84545,3.17251 7.31495,6.62086 4.45797,3.43944 8.68305,6.93075 10.19347,6.93137 1.558,6.3e-4 1.15889,-2.81587 -0.84886,-5.7281 -2.02007,-2.9301 -5.63115,-5.90246 -7.73843,-6.3029 -2.08983,-0.39711 2.16714,2.42809 6.58953,5.38322 4.40831,2.9457 8.9164,5.9933 10.44435,5.99392 3.03131,0.001 5.68316,-2.95136 -1.10558,-6.44963 -4.00413,-2.06336 -1.02872,-0.12708 1.59209,1.65912 2.96918,2.02364 6.22007,4.44682 6.22007,4.44682 z"
       id="rect2286" />
    <path
       style="fill:none;stroke:#ffffff;stroke-width:0.90684909;stroke-linecap:butt;stroke-linejoin:miter;stroke-miterlimit:4;stroke-dasharray:none;stroke-opacity:1"
       d="M 535.18249,218.14837 94.061111,336.34649"
       id="path3800-3" />
    <path
       style="fill:none;stroke:#ffffff;stroke-width:0.98336458;stroke-linecap:butt;stroke-linejoin:miter;stroke-miterlimit:4;stroke-dasharray:none;stroke-opacity:1"
       d="M 575.97887,337.67933 H 93.78965"
       id="path3800-3-5" />
    <ellipse
       clip-path="url(#clipPath4832)"
       transform="matrix(1.4875893,0,0,2.0443091,-240.50487,-264.94455)"
       style="fill:none;stroke:url(#linearGradient4836);stroke-width:0.57343632;stroke-miterlimit:4;stroke-dasharray:none;stroke-opacity:1"
       id="path3892"
       cx="461.38718"
       cy="294.24271"
       rx="58.336311"
       ry="43.941635" />
    <path
       style="fill:none;stroke:#ffffff;stroke-width:1.00326276px;stroke-linecap:butt;stroke-linejoin:miter;stroke-opacity:1"
       d="M 533.36002,379.50184 V 215.80409"
       id="path3906" />
    <path
       style="fill:none;stroke:#ffffff;stroke-width:1.21299863;stroke-linecap:butt;stroke-linejoin:miter;stroke-miterlimit:4;stroke-dasharray:none;stroke-opacity:1"
       d="m 272.2359,344.99882 -0.50507,-66.8868"
       id="path3908" />
    <path
       style="fill:none;stroke:#ffffff;stroke-width:1.18851018px;stroke-linecap:butt;stroke-linejoin:miter;stroke-opacity:1"
       d="M 285.52614,318.32818 94.004093,337.20466"
       id="path3910" />
    <path
       style="fill:none;stroke:#ffffff;stroke-width:1.20002103;stroke-linecap:butt;stroke-linejoin:miter;stroke-miterlimit:4;stroke-dasharray:none;stroke-opacity:1"
       d="M 285.77317,298.13066 94.035589,336.78904"
       id="path3912" />
    <path
       style="fill:none;stroke:#ffffff;stroke-width:1.02530789;stroke-linecap:butt;stroke-linejoin:miter;stroke-miterlimit:4;stroke-dasharray:none;stroke-opacity:1"
       d="M 93.951539,337.50317 453.4826,319.57207"
       id="path3952" />
    <path
       style="fill:none;stroke:#ffffff;stroke-width:1.26739323px;stroke-linecap:butt;stroke-linejoin:miter;stroke-opacity:1"
       d="M 432.34488,357.58376 V 304.84942"
       id="path3954" />
  </g>
</svg>
